<svg width="51" height="51" viewBox="0 0 51 51" fill="none" xmlns="http://www.w3.org/2000/svg">
<path d="M39.7777 11H11.8753C9.73503 11 8 13.0687 8 15.6205V35.9511C8 38.503 9.73503 40.5717 11.8753 40.5717H39.7777C41.918 40.5717 43.653 38.503 43.653 35.9511V15.6205C43.653 13.0687 41.918 11 39.7777 11Z" fill="#C0DADC"/>
<path d="M9.35152 12.1211C8.92783 12.5536 8.58765 13.0902 8.35436 13.6943C8.12107 14.2983 8.00018 14.9554 8 15.6204V35.9509C8.00115 37.1759 8.40977 38.3503 9.13622 39.2165C9.86266 40.0827 10.8476 40.57 11.875 40.5715H39.7773C40.7042 40.5716 41.6 40.1735 42.3008 39.4503L9.35152 12.1211Z" fill="#86A9AF"/>
<path d="M8 17.4688H43.653V22.0893H8V17.4688Z" fill="#2D4A60"/>
<path d="M15.7991 17.4688L21.3699 22.0893H8V17.4688H15.7991Z" fill="#263F52"/>
<path d="M38.6157 30.4062H33.9653C33.3232 30.4062 32.8027 31.0269 32.8027 31.7924V34.5648C32.8027 35.3303 33.3232 35.9509 33.9653 35.9509H38.6157C39.2578 35.9509 39.7783 35.3303 39.7783 34.5648V31.7924C39.7783 31.0269 39.2578 30.4062 38.6157 30.4062Z" fill="#FAC100"/>
<path d="M32.8202 31.5859C32.81 31.6542 32.8042 31.7232 32.8027 31.7925V34.5648C32.8027 34.9325 32.9252 35.285 33.1433 35.545C33.3613 35.805 33.657 35.951 33.9653 35.951H38.0829L32.8202 31.5859Z" fill="#FF9500"/>
<path d="M18.0752 27.6339H12.6498C12.5474 27.6351 12.4458 27.612 12.3509 27.5661C12.256 27.5202 12.1696 27.4523 12.0969 27.3664C12.0241 27.2805 11.9663 27.1782 11.9269 27.0655C11.8875 26.9528 11.8672 26.8319 11.8672 26.7098C11.8672 26.5877 11.8875 26.4668 11.9269 26.3541C11.9663 26.2414 12.0241 26.1391 12.0969 26.0532C12.1696 25.9672 12.256 25.8994 12.3509 25.8534C12.4458 25.8075 12.5474 25.7845 12.6498 25.7857H18.0753C18.1777 25.7845 18.2793 25.8075 18.3742 25.8534C18.4691 25.8994 18.5554 25.9672 18.6282 26.0532C18.7009 26.1391 18.7587 26.2414 18.7981 26.3541C18.8376 26.4668 18.8579 26.5877 18.8579 26.7098C18.8579 26.8319 18.8376 26.9528 18.7981 27.0655C18.7587 27.1782 18.7009 27.2805 18.6282 27.3664C18.5554 27.4523 18.4691 27.5202 18.3742 27.5661C18.2793 27.612 18.1777 27.6351 18.0753 27.6339H18.0752Z" fill="#D9E1E2"/>
</svg>
