<svg width="25" height="25" viewBox="0 0 25 25" fill="none" xmlns="http://www.w3.org/2000/svg">
<path d="M18.3379 15.2524V20.4032" stroke="#68606E" stroke-width="1.56" stroke-linecap="round" stroke-linejoin="round"/>
<path d="M15.7627 17.8276H20.9134" stroke="#68606E" stroke-width="1.56" stroke-linecap="round" stroke-linejoin="round"/>
<path d="M12.3296 10.3154L9.80664 12.8384" stroke="#6769FE" stroke-width="1.56" stroke-linecap="round" stroke-linejoin="round"/>
<path d="M9.15396 7.25051L10.5152 5.88926C10.925 5.47946 11.4115 5.15439 11.9469 4.93261C12.4824 4.71083 13.0562 4.59668 13.6358 4.59668C14.2153 4.59668 14.7892 4.71083 15.3246 4.93261C15.86 5.15439 16.3465 5.47946 16.7563 5.88926C17.1661 6.29906 17.4912 6.78556 17.713 7.32098C17.9347 7.85641 18.0489 8.43028 18.0489 9.00982C18.0489 9.58936 17.9347 10.1632 17.713 10.6986C17.4912 11.2341 17.1661 11.7206 16.7563 12.1304L15.404 13.4828M12.9819 15.9049L11.6206 17.2661C10.793 18.0938 9.67049 18.5587 8.50006 18.5587C7.32962 18.5587 6.20712 18.0938 5.37949 17.2661C4.9697 16.8563 4.64463 16.3698 4.42284 15.8344C4.20106 15.299 4.08691 14.7251 4.08691 14.1456C4.08691 13.566 4.20106 12.9922 4.42284 12.4567C4.64463 11.9213 4.9697 11.4348 5.37949 11.025L6.73191 9.67255" stroke="#6769FE" stroke-width="1.56" stroke-miterlimit="10" stroke-linecap="round"/>
</svg>
