<svg width="25" height="25" viewBox="0 0 25 25" fill="none" xmlns="http://www.w3.org/2000/svg">
<path d="M14.4921 21.8826H3.2654C2.81185 21.8801 2.37783 21.6977 2.05859 21.3755C1.73934 21.0533 1.56094 20.6177 1.56252 20.1641V3.7033C1.56105 3.3883 1.64608 3.07894 1.80832 2.80893C1.97056 2.53893 2.2038 2.31863 2.48262 2.17205C2.75524 2.0288 3.06194 1.96308 3.36932 1.98205C3.67671 2.00102 3.973 2.10395 4.22594 2.27963C4.42712 2.44748 4.68361 2.53438 4.94539 2.52338C5.2583 2.52894 5.56094 2.41171 5.78844 2.19681C6.28644 1.7911 6.90921 1.56972 7.55155 1.57007C8.19389 1.57042 8.81643 1.79247 9.31399 2.19872C9.5391 2.41184 9.83868 2.52839 10.1486 2.52343C10.4617 2.52882 10.7644 2.4118 10.9924 2.19727C11.4917 1.79134 12.1155 1.56986 12.7589 1.57014C13.4023 1.57042 14.026 1.79244 14.5249 2.1988C14.75 2.41189 15.0496 2.52842 15.3595 2.52343C15.6187 2.53637 15.8734 2.45263 16.0744 2.28845C16.3261 2.10869 16.6227 2.00201 16.9313 1.9802C17.2399 1.95839 17.5485 2.02229 17.823 2.16485C18.1034 2.30994 18.3383 2.52959 18.5019 2.79963C18.6654 3.06966 18.7513 3.3796 18.75 3.69531V13.2812C18.75 13.4884 18.6677 13.6872 18.5212 13.8337C18.3747 13.9802 18.176 14.0625 17.9688 14.0625C17.7616 14.0625 17.5629 13.9802 17.4163 13.8337C17.2698 13.6872 17.1875 13.4884 17.1875 13.2812V3.69531C17.189 3.66592 17.1819 3.63673 17.1672 3.61128C17.1524 3.58582 17.1306 3.56519 17.1044 3.55188C17.0853 3.5409 17.0635 3.53587 17.0416 3.53743C17.0197 3.539 16.9988 3.54708 16.9815 3.56065C16.5158 3.91405 15.944 4.09922 15.3595 4.08593C14.7175 4.09253 14.0941 3.87035 13.6009 3.45917C13.3703 3.24915 13.0695 3.13273 12.7576 3.13265C12.4456 3.13258 12.1449 3.24887 11.9141 3.45878C11.4186 3.87054 10.7929 4.09281 10.1486 4.08593C9.5066 4.09253 8.88318 3.87035 8.39004 3.45917C8.16112 3.24947 7.86203 3.133 7.55158 3.13264C7.24112 3.13228 6.94177 3.24808 6.71236 3.45725C6.21672 3.86999 5.59035 4.09285 4.94539 4.08593C4.36054 4.09777 3.78897 3.91083 3.32414 3.55569C3.30654 3.54494 3.28629 3.53931 3.26567 3.53945C3.24505 3.53959 3.22487 3.54548 3.20742 3.55647C3.18088 3.57027 3.15895 3.59151 3.14432 3.61759C3.12968 3.64367 3.12297 3.67346 3.12502 3.7033V20.1641C3.12352 20.2033 3.13735 20.2415 3.16356 20.2706C3.18977 20.2997 3.2263 20.3175 3.2654 20.3201H14.4921C14.6993 20.3201 14.898 20.4024 15.0445 20.5489C15.191 20.6955 15.2733 20.8942 15.2733 21.1014C15.2733 21.3086 15.191 21.5073 15.0445 21.6538C14.898 21.8003 14.6993 21.8826 14.4921 21.8826Z" fill="#6769FE"/>
<path d="M14.5287 8.5979H8.75098C8.54378 8.5979 8.34506 8.51559 8.19855 8.36908C8.05204 8.22256 7.96973 8.02385 7.96973 7.81665C7.96973 7.60945 8.05204 7.41074 8.19855 7.26422C8.34506 7.11771 8.54378 7.0354 8.75098 7.0354H14.5287C14.7359 7.0354 14.9346 7.11771 15.0811 7.26422C15.2277 7.41074 15.31 7.60945 15.31 7.81665C15.31 8.02385 15.2277 8.22256 15.0811 8.36908C14.9346 8.51559 14.7359 8.5979 14.5287 8.5979Z" fill="#6769FE"/>
<path d="M5.93965 8.75308C6.45698 8.75308 6.87637 8.33369 6.87637 7.81636C6.87637 7.29902 6.45698 6.87964 5.93965 6.87964C5.42231 6.87964 5.00293 7.29902 5.00293 7.81636C5.00293 8.33369 5.42231 8.75308 5.93965 8.75308Z" fill="#6769FE"/>
<path d="M14.5287 12.6582H8.75098C8.54378 12.6582 8.34506 12.5759 8.19855 12.4294C8.05204 12.2829 7.96973 12.0842 7.96973 11.877C7.96973 11.6698 8.05204 11.471 8.19855 11.3245C8.34506 11.178 8.54378 11.0957 8.75098 11.0957H14.5287C14.7359 11.0957 14.9346 11.178 15.0811 11.3245C15.2277 11.471 15.31 11.6698 15.31 11.877C15.31 12.0842 15.2277 12.2829 15.0811 12.4294C14.9346 12.5759 14.7359 12.6582 14.5287 12.6582Z" fill="#6769FE"/>
<path d="M5.93965 12.8139C6.45698 12.8139 6.87637 12.3945 6.87637 11.8771C6.87637 11.3598 6.45698 10.9404 5.93965 10.9404C5.42231 10.9404 5.00293 11.3598 5.00293 11.8771C5.00293 12.3945 5.42231 12.8139 5.93965 12.8139Z" fill="#6769FE"/>
<path d="M13.2813 16.5645H8.75098C8.54378 16.5645 8.34506 16.4821 8.19855 16.3356C8.05204 16.1891 7.96973 15.9904 7.96973 15.7832C7.96973 15.576 8.05204 15.3773 8.19855 15.2308C8.34506 15.0843 8.54378 15.002 8.75098 15.002H13.2813C13.4885 15.002 13.6872 15.0843 13.8337 15.2308C13.9803 15.3773 14.0626 15.576 14.0626 15.7832C14.0626 15.9904 13.9803 16.1891 13.8337 16.3356C13.6872 16.4821 13.4885 16.5645 13.2813 16.5645Z" fill="#6769FE"/>
<path d="M5.93965 16.7201C6.45698 16.7201 6.87637 16.3007 6.87637 15.7834C6.87637 15.2661 6.45698 14.8467 5.93965 14.8467C5.42231 14.8467 5.00293 15.2661 5.00293 15.7834C5.00293 16.3007 5.42231 16.7201 5.93965 16.7201Z" fill="#6769FE"/>
<path d="M17.9688 23.4375C16.8871 23.4375 15.8298 23.1168 14.9305 22.5159C14.0311 21.9149 13.3302 21.0608 12.9163 20.0616C12.5024 19.0623 12.3941 17.9627 12.6051 16.9019C12.8161 15.841 13.3369 14.8666 14.1018 14.1018C14.8666 13.3369 15.841 12.8161 16.9019 12.6051C17.9627 12.3941 19.0623 12.5024 20.0616 12.9163C21.0608 13.3302 21.9149 14.0311 22.5159 14.9305C23.1168 15.8298 23.4375 16.8871 23.4375 17.9688C23.4358 19.4186 22.8591 20.8087 21.8339 21.8339C20.8087 22.8591 19.4186 23.4358 17.9688 23.4375ZM17.9688 14.0625C17.1962 14.0625 16.4409 14.2916 15.7986 14.7208C15.1562 15.15 14.6555 15.7601 14.3598 16.4739C14.0642 17.1877 13.9868 17.9731 14.1376 18.7308C14.2883 19.4886 14.6603 20.1846 15.2066 20.7309C15.7529 21.2772 16.4489 21.6492 17.2067 21.7999C17.9644 21.9507 18.7498 21.8733 19.4636 21.5777C20.1774 21.282 20.7875 20.7813 21.2167 20.1389C21.6459 19.4966 21.875 18.7413 21.875 17.9688C21.8738 16.9331 21.4618 15.9403 20.7295 15.208C19.9972 14.4757 19.0044 14.0637 17.9688 14.0625Z" fill="#68606E"/>
<path d="M17.9688 20.3125C17.8661 20.3125 17.7645 20.2923 17.6697 20.2531C17.5749 20.2138 17.4888 20.1563 17.4163 20.0837C17.3437 20.0112 17.2862 19.9251 17.2469 19.8303C17.2077 19.7355 17.1875 19.6339 17.1875 19.5312V16.4062C17.1875 16.199 17.2698 16.0003 17.4163 15.8538C17.5628 15.7073 17.7615 15.625 17.9688 15.625C18.176 15.625 18.3747 15.7073 18.5212 15.8538C18.6677 16.0003 18.75 16.199 18.75 16.4062V19.5312C18.75 19.6339 18.7298 19.7355 18.6906 19.8303C18.6513 19.9251 18.5938 20.0112 18.5212 20.0837C18.4487 20.1563 18.3626 20.2138 18.2678 20.2531C18.173 20.2923 18.0714 20.3125 17.9688 20.3125Z" fill="#68606E"/>
<path d="M19.5312 18.75H16.4062C16.199 18.75 16.0003 18.6677 15.8538 18.5212C15.7073 18.3747 15.625 18.176 15.625 17.9688C15.625 17.7615 15.7073 17.5628 15.8538 17.4163C16.0003 17.2698 16.199 17.1875 16.4062 17.1875H19.5312C19.7385 17.1875 19.9372 17.2698 20.0837 17.4163C20.2302 17.5628 20.3125 17.7615 20.3125 17.9688C20.3125 18.176 20.2302 18.3747 20.0837 18.5212C19.9372 18.6677 19.7385 18.75 19.5312 18.75Z" fill="#68606E"/>
</svg>
