<svg width="31" height="33" viewBox="0 0 31 33" fill="none" xmlns="http://www.w3.org/2000/svg">
<g clip-path="url(#clip0_367_8293)" filter="url(#filter0_d_367_8293)">
<path d="M14.4575 11.9695C14.2503 11.9695 14.0516 11.8872 13.9051 11.7407C13.7586 11.5942 13.6762 11.3955 13.6762 11.1883V11.3414L5.18562 6.3914C5.06819 6.31827 4.97235 6.21519 4.90795 6.09276C4.84355 5.97033 4.8129 5.83296 4.81916 5.69477C4.82541 5.55657 4.86835 5.42254 4.94356 5.30643C5.01876 5.19032 5.12352 5.09633 5.24708 5.03411L14.8179 0.145564C15.196 -0.0533943 15.82 -0.0502693 16.1992 0.158064L25.7492 5.02786C25.8744 5.09182 25.9801 5.1884 26.055 5.30743C26.1299 5.42645 26.1713 5.56349 26.1749 5.70409C26.1784 5.84468 26.1439 5.98362 26.075 6.10625C26.0061 6.22887 25.9054 6.33062 25.7835 6.40077L18.9867 10.3018C18.8076 10.3978 18.5981 10.4202 18.4028 10.3643C18.2075 10.3084 18.0416 10.1786 17.9404 10.0024C17.8391 9.82622 17.8105 9.61755 17.8606 9.42064C17.9107 9.22373 18.0355 9.05407 18.2085 8.94765L23.7533 5.76431L15.469 1.53931L7.17833 5.79765L14.6679 10.1195C14.9294 10.2685 15.2387 10.6081 15.2387 11.0654V11.1872C15.2389 11.2899 15.2188 11.3916 15.1796 11.4865C15.1404 11.5814 15.0828 11.6677 15.0103 11.7403C14.9377 11.813 14.8516 11.8706 14.7567 11.91C14.6619 11.9493 14.5602 11.9695 14.4575 11.9695Z" fill="#0E10B8"/>
<path d="M17.0611 10.0691L14.457 9.89551L13.7573 9.97326C13.2661 10.0278 12.8945 10.443 12.8945 10.9372L13.9362 11.9788L15.4986 12.3839L16.5402 13.5413L17.5819 12.9626L17.0611 10.0691Z" fill="#7677EE"/>
<path d="M15.4507 24.9978C15.2184 24.9978 14.9715 24.9353 14.6975 24.7769L5.62669 19.4613C5.23815 19.2332 4.81836 18.7332 4.81836 18.1717V5.73005C4.81836 5.52285 4.90067 5.32413 5.04718 5.17762C5.1937 5.03111 5.39241 4.9488 5.59961 4.9488C5.80681 4.9488 6.00552 5.03111 6.15204 5.17762C6.29855 5.32413 6.38086 5.52285 6.38086 5.73005V18.0623L15.4777 23.4238C15.4996 23.4134 15.559 23.3884 15.6579 23.3394L24.559 18.1144L24.609 5.729C24.609 5.5218 24.6913 5.32309 24.8378 5.17658C24.9843 5.03006 25.183 4.94775 25.3902 4.94775C25.5974 4.94775 25.7962 5.03006 25.9427 5.17658C26.0892 5.32309 26.1715 5.5218 26.1715 5.729V18.154C26.1715 18.7665 25.7454 19.2311 25.3465 19.4634L16.3986 24.7134C16.0934 24.8675 15.7871 24.9978 15.4507 24.9978Z" fill="#0E10B8"/>
<path fill-rule="evenodd" clip-rule="evenodd" d="M12.1133 15.28C12.1133 14.9 12.4215 14.5918 12.8015 14.5918H14.4538C14.6364 14.5918 14.8115 14.6643 14.9407 14.7934C15.0698 14.9226 15.1423 15.0977 15.1423 15.2803C15.1423 15.4629 15.0698 15.638 14.9407 15.7672C14.8115 15.8963 14.6364 15.9688 14.4538 15.9688H12.8015C12.7111 15.9688 12.6216 15.951 12.538 15.9164C12.4545 15.8818 12.3786 15.831 12.3147 15.7671C12.2508 15.7031 12.2001 15.6271 12.1655 15.5436C12.131 15.46 12.1132 15.3705 12.1133 15.28ZM12.1133 10.3233C12.1133 9.94326 12.4215 9.63501 12.8015 9.63501H18.9975C19.1801 9.63501 19.3552 9.70755 19.4844 9.83667C19.6135 9.9658 19.686 10.1409 19.686 10.3235C19.686 10.5061 19.6135 10.6813 19.4844 10.8104C19.3552 10.9395 19.1801 11.0121 18.9975 11.0121H12.8015C12.7111 11.0121 12.6216 10.9942 12.538 10.9596C12.4545 10.925 12.3786 10.8743 12.3147 10.8103C12.2508 10.7463 12.2001 10.6704 12.1655 10.5868C12.131 10.5033 12.1132 10.4137 12.1133 10.3233ZM12.1133 12.8017C12.1133 12.4216 12.4215 12.1134 12.8015 12.1134H18.9975C19.18 12.1134 19.3551 12.1859 19.4842 12.315C19.6133 12.4441 19.6858 12.6191 19.6858 12.8017C19.6858 12.9842 19.6133 13.1593 19.4842 13.2883C19.3551 13.4174 19.18 13.4899 18.9975 13.4899H12.8015C12.619 13.4899 12.4439 13.4174 12.3149 13.2883C12.1858 13.1593 12.1133 12.9842 12.1133 12.8017Z" fill="white"/>
<path fill-rule="evenodd" clip-rule="evenodd" d="M12.3148 14.7921C12.5833 14.5231 13.0196 14.5231 13.2886 14.7921L17.6697 19.1731C17.7988 19.3023 17.8714 19.4774 17.8714 19.66C17.8714 19.8427 17.7988 20.0178 17.6697 20.1469C17.5406 20.2761 17.3654 20.3486 17.1828 20.3486C17.0002 20.3486 16.825 20.2761 16.6959 20.1469L12.3148 15.7654C12.1858 15.6363 12.1133 15.4612 12.1133 15.2787C12.1133 15.0962 12.1858 14.9212 12.3148 14.7921Z" fill="white"/>
<path fill-rule="evenodd" clip-rule="evenodd" d="M16.2447 12.8017C16.2447 11.864 15.4036 11.0121 14.248 11.0121V9.63501C16.0583 9.63501 17.6212 11.0017 17.6212 12.8017C17.6212 14.6016 16.0583 15.9688 14.248 15.9688V14.5918C15.4036 14.5918 16.2447 13.7398 16.2447 12.8017Z" fill="white"/>
</g>
<defs>
<filter id="filter0_d_367_8293" x="-1.00195" y="-0.000244141" width="33" height="33" filterUnits="userSpaceOnUse" color-interpolation-filters="sRGB">
<feFlood flood-opacity="0" result="BackgroundImageFix"/>
<feColorMatrix in="SourceAlpha" type="matrix" values="0 0 0 0 0 0 0 0 0 0 0 0 0 0 0 0 0 0 127 0" result="hardAlpha"/>
<feOffset dy="4"/>
<feGaussianBlur stdDeviation="2"/>
<feComposite in2="hardAlpha" operator="out"/>
<feColorMatrix type="matrix" values="0 0 0 0 0 0 0 0 0 0 0 0 0 0 0 0 0 0 0.25 0"/>
<feBlend mode="normal" in2="BackgroundImageFix" result="effect1_dropShadow_367_8293"/>
<feBlend mode="normal" in="SourceGraphic" in2="effect1_dropShadow_367_8293" result="shape"/>
</filter>
<clipPath id="clip0_367_8293">
<rect width="25" height="25" fill="white" transform="translate(2.99805 -0.000244141)"/>
</clipPath>
</defs>
</svg>
