<svg width="17" height="16" viewBox="0 0 17 16" fill="none" xmlns="http://www.w3.org/2000/svg">
<path d="M9.1151 5.86672H2.18177C2.04032 5.86672 1.90467 5.81053 1.80465 5.71051C1.70463 5.61049 1.64844 5.47483 1.64844 5.33338C1.64844 5.19193 1.70463 5.05628 1.80465 4.95626C1.90467 4.85624 2.04032 4.80005 2.18177 4.80005H9.1151C9.25655 4.80005 9.39221 4.85624 9.49223 4.95626C9.59225 5.05628 9.64844 5.19193 9.64844 5.33338C9.64844 5.47483 9.59225 5.61049 9.49223 5.71051C9.39221 5.81053 9.25655 5.86672 9.1151 5.86672ZM13.9151 5.86672H11.7818C11.6403 5.86672 11.5047 5.81053 11.4046 5.71051C11.3046 5.61049 11.2484 5.47483 11.2484 5.33338C11.2484 5.19193 11.3046 5.05628 11.4046 4.95626C11.5047 4.85624 11.6403 4.80005 11.7818 4.80005H13.9151C14.0566 4.80005 14.1922 4.85624 14.2922 4.95626C14.3922 5.05628 14.4484 5.19193 14.4484 5.33338C14.4484 5.47483 14.3922 5.61049 14.2922 5.71051C14.1922 5.81053 14.0566 5.86672 13.9151 5.86672Z" fill="#3D3E40" stroke="#3D3E40" stroke-width="0.326487"/>
<path d="M10.4484 7.20001C10.0792 7.20001 9.71834 7.09053 9.41137 6.88542C9.1044 6.68031 8.86515 6.38877 8.72386 6.04768C8.58258 5.7066 8.54561 5.33127 8.61764 4.96917C8.68966 4.60708 8.86745 4.27447 9.1285 4.01341C9.38956 3.75235 9.72217 3.57457 10.0843 3.50254C10.4464 3.43052 10.8217 3.46748 11.1628 3.60877C11.5039 3.75005 11.7954 3.98931 12.0005 4.29628C12.2056 4.60325 12.3151 4.96415 12.3151 5.33334C12.3151 5.82841 12.1184 6.30321 11.7684 6.65327C11.4183 7.00334 10.9435 7.20001 10.4484 7.20001ZM10.4484 4.53334C10.2902 4.53334 10.1355 4.58026 10.004 4.66817C9.87242 4.75607 9.76989 4.88101 9.70933 5.0272C9.64878 5.17338 9.63294 5.33423 9.66381 5.48941C9.69468 5.6446 9.77087 5.78715 9.88275 5.89903C9.99463 6.01091 10.1372 6.0871 10.2924 6.11797C10.4476 6.14884 10.6084 6.133 10.7546 6.07245C10.9008 6.0119 11.0257 5.90936 11.1136 5.7778C11.2015 5.64624 11.2484 5.49157 11.2484 5.33334C11.2484 5.12117 11.1642 4.91769 11.0141 4.76766C10.8641 4.61763 10.6606 4.53334 10.4484 4.53334ZM13.9151 11.2H6.98177C6.84032 11.2 6.70467 11.1438 6.60465 11.0438C6.50463 10.9438 6.44844 10.8081 6.44844 10.6667C6.44844 10.5252 6.50463 10.3896 6.60465 10.2896C6.70467 10.1895 6.84032 10.1333 6.98177 10.1333H13.9151C14.0566 10.1333 14.1922 10.1895 14.2922 10.2896C14.3922 10.3896 14.4484 10.5252 14.4484 10.6667C14.4484 10.8081 14.3922 10.9438 14.2922 11.0438C14.1922 11.1438 14.0566 11.2 13.9151 11.2ZM4.3151 11.2H2.18177C2.04032 11.2 1.90467 11.1438 1.80465 11.0438C1.70463 10.9438 1.64844 10.8081 1.64844 10.6667C1.64844 10.5252 1.70463 10.3896 1.80465 10.2896C1.90467 10.1895 2.04032 10.1333 2.18177 10.1333H4.3151C4.45655 10.1333 4.59221 10.1895 4.69223 10.2896C4.79225 10.3896 4.84844 10.5252 4.84844 10.6667C4.84844 10.8081 4.79225 10.9438 4.69223 11.0438C4.59221 11.1438 4.45655 11.2 4.3151 11.2Z" fill="#3D3E40" stroke="#3D3E40" stroke-width="0.326487"/>
<path d="M5.64792 12.5333C5.27873 12.5333 4.91782 12.4238 4.61085 12.2187C4.30388 12.0136 4.06463 11.722 3.92334 11.3809C3.78206 11.0398 3.74509 10.6645 3.81712 10.3024C3.88914 9.94033 4.06693 9.60772 4.32798 9.34666C4.58904 9.0856 4.92165 8.90782 5.28375 8.83579C5.64585 8.76377 6.02117 8.80074 6.36226 8.94202C6.70335 9.0833 6.99488 9.32256 7.19999 9.62953C7.40511 9.9365 7.51458 10.2974 7.51458 10.6666C7.51458 11.1617 7.31792 11.6365 6.96785 11.9865C6.61778 12.3366 6.14299 12.5333 5.64792 12.5333ZM5.64792 9.86659C5.48969 9.86659 5.33502 9.91351 5.20346 10.0014C5.0719 10.0893 4.96936 10.2143 4.90881 10.3604C4.84826 10.5066 4.83242 10.6675 4.86329 10.8227C4.89416 10.9779 4.97035 11.1204 5.08223 11.2323C5.19411 11.3442 5.33666 11.4204 5.49185 11.4512C5.64703 11.4821 5.80788 11.4662 5.95406 11.4057C6.10025 11.3451 6.22519 11.2426 6.31309 11.1111C6.401 10.9795 6.44792 10.8248 6.44792 10.6666C6.44792 10.4544 6.36363 10.2509 6.2136 10.1009C6.06357 9.95088 5.86009 9.86659 5.64792 9.86659Z" fill="#3D3E40" stroke="#3D3E40" stroke-width="0.326487"/>
</svg>
