<svg width="36" height="36" viewBox="0 0 36 36" fill="none" xmlns="http://www.w3.org/2000/svg">
<path d="M20.5223 31.1722H4.80496C4.16999 31.1686 3.56237 30.9133 3.11542 30.4622C2.66848 30.0112 2.41871 29.4012 2.42092 28.7663V5.72114C2.41888 5.28014 2.53791 4.84704 2.76505 4.46903C2.99219 4.09102 3.31872 3.7826 3.70907 3.57739C4.09074 3.37684 4.52012 3.28484 4.95045 3.3114C5.38079 3.33795 5.79559 3.48205 6.14972 3.728C6.43137 3.963 6.79046 4.08466 7.15695 4.06925C7.59502 4.07704 8.01871 3.91292 8.33722 3.61206C9.03441 3.04407 9.90629 2.73413 10.8056 2.73462C11.7049 2.73511 12.5764 3.04598 13.273 3.61473C13.5881 3.9131 14.0076 4.07627 14.4415 4.06933C14.8797 4.07688 15.3036 3.91304 15.6228 3.61271C16.3217 3.0444 17.1951 2.73433 18.0959 2.73472C18.9967 2.73511 19.8698 3.04593 20.5682 3.61484C20.8834 3.91317 21.3028 4.07631 21.7367 4.06933C22.0996 4.08744 22.4562 3.97021 22.7375 3.74035C23.09 3.48868 23.5052 3.33934 23.9372 3.3088C24.3692 3.27827 24.8013 3.36773 25.1856 3.56732C25.5782 3.77044 25.9071 4.07795 26.136 4.456C26.365 4.83405 26.4852 5.26796 26.4834 5.70995V19.1303C26.4834 19.4203 26.3682 19.6985 26.1631 19.9037C25.958 20.1088 25.6798 20.224 25.3897 20.224C25.0996 20.224 24.8214 20.1088 24.6163 19.9037C24.4112 19.6985 24.2959 19.4203 24.2959 19.1303V5.70995C24.298 5.66881 24.2881 5.62795 24.2674 5.59231C24.2468 5.55667 24.2162 5.52779 24.1795 5.50915C24.1529 5.49378 24.1223 5.48674 24.0916 5.48893C24.061 5.49112 24.0317 5.50244 24.0075 5.52143C23.3555 6.0162 22.555 6.27543 21.7367 6.25683C20.8379 6.26607 19.9651 5.95501 19.2747 5.37936C18.9518 5.08534 18.5308 4.92234 18.094 4.92224C17.6573 4.92214 17.2362 5.08494 16.9131 5.37882C16.2194 5.95528 15.3434 6.26646 14.4415 6.25683C13.5426 6.26607 12.6699 5.95501 11.9795 5.37936C11.659 5.08579 11.2402 4.92272 10.8056 4.92222C10.371 4.92172 9.95187 5.08383 9.63071 5.37667C8.9368 5.95451 8.05989 6.26651 7.15695 6.25683C6.33815 6.2734 5.53796 6.01169 4.8872 5.51449C4.86256 5.49943 4.83421 5.49156 4.80534 5.49175C4.77646 5.49195 4.74822 5.5002 4.72378 5.51558C4.68663 5.5349 4.65593 5.56464 4.63544 5.60115C4.61495 5.63767 4.60556 5.67937 4.60842 5.72114V28.7663C4.60633 28.8211 4.62569 28.8746 4.66238 28.9154C4.69908 28.9561 4.75022 28.981 4.80496 28.9847H20.5223C20.8123 28.9847 21.0905 29.0999 21.2957 29.3051C21.5008 29.5102 21.616 29.7884 21.616 30.0784C21.616 30.3685 21.5008 30.6467 21.2957 30.8518C21.0905 31.057 20.8123 31.1722 20.5223 31.1722Z" fill="white"/>
<path d="M20.5722 12.5737H12.4834C12.1933 12.5737 11.9151 12.4585 11.71 12.2534C11.5049 12.0483 11.3896 11.7701 11.3896 11.48C11.3896 11.1899 11.5049 10.9117 11.71 10.7066C11.9151 10.5015 12.1933 10.3862 12.4834 10.3862H20.5722C20.8623 10.3862 21.1405 10.5015 21.3456 10.7066C21.5508 10.9117 21.666 11.1899 21.666 11.48C21.666 11.7701 21.5508 12.0483 21.3456 12.2534C21.1405 12.4585 20.8623 12.5737 20.5722 12.5737Z" fill="white"/>
<path d="M8.55066 12.791C9.27493 12.791 9.86207 12.2039 9.86207 11.4796C9.86207 10.7553 9.27493 10.1682 8.55066 10.1682C7.82639 10.1682 7.23926 10.7553 7.23926 11.4796C7.23926 12.2039 7.82639 12.791 8.55066 12.791Z" fill="white"/>
<path d="M20.5722 18.2581H12.4834C12.1933 18.2581 11.9151 18.1428 11.71 17.9377C11.5049 17.7326 11.3896 17.4544 11.3896 17.1643C11.3896 16.8742 11.5049 16.596 11.71 16.3909C11.9151 16.1858 12.1933 16.0706 12.4834 16.0706H20.5722C20.8623 16.0706 21.1405 16.1858 21.3456 16.3909C21.5508 16.596 21.666 16.8742 21.666 17.1643C21.666 17.4544 21.5508 17.7326 21.3456 17.9377C21.1405 18.1428 20.8623 18.2581 20.5722 18.2581Z" fill="white"/>
<path d="M8.55066 18.4761C9.27493 18.4761 9.86207 17.8889 9.86207 17.1647C9.86207 16.4404 9.27493 15.8533 8.55066 15.8533C7.82639 15.8533 7.23926 16.4404 7.23926 17.1647C7.23926 17.8889 7.82639 18.4761 8.55066 18.4761Z" fill="white"/>
<path d="M18.8259 23.7268H12.4834C12.1933 23.7268 11.9151 23.6116 11.71 23.4065C11.5049 23.2013 11.3896 22.9231 11.3896 22.6331C11.3896 22.343 11.5049 22.0648 11.71 21.8597C11.9151 21.6545 12.1933 21.5393 12.4834 21.5393H18.8259C19.1159 21.5393 19.3941 21.6545 19.5993 21.8597C19.8044 22.0648 19.9196 22.343 19.9196 22.6331C19.9196 22.9231 19.8044 23.2013 19.5993 23.4065C19.3941 23.6116 19.1159 23.7268 18.8259 23.7268Z" fill="white"/>
<path d="M8.55066 23.9448C9.27493 23.9448 9.86207 23.3577 9.86207 22.6334C9.86207 21.9092 9.27493 21.322 8.55066 21.322C7.82639 21.322 7.23926 21.9092 7.23926 22.6334C7.23926 23.3577 7.82639 23.9448 8.55066 23.9448Z" fill="white"/>
<path d="M25.3897 33.3491C23.8754 33.3491 22.3951 32.9001 21.1361 32.0588C19.877 31.2175 18.8957 30.0218 18.3162 28.6228C17.7367 27.2238 17.5851 25.6844 17.8805 24.1992C18.1759 22.714 18.9051 21.3498 19.9759 20.2791C21.0466 19.2083 22.4108 18.4792 23.896 18.1837C25.3812 17.8883 26.9206 18.0399 28.3196 18.6194C29.7186 19.1989 30.9143 20.1802 31.7556 21.4393C32.5969 22.6984 33.0459 24.1786 33.0459 25.6929C33.0435 27.7227 32.2361 29.6687 30.8008 31.104C29.3655 32.5394 27.4195 33.3468 25.3897 33.3491ZM25.3897 20.2241C24.308 20.2241 23.2507 20.5449 22.3514 21.1458C21.452 21.7467 20.7511 22.6008 20.3372 23.6001C19.9233 24.5994 19.815 25.6989 20.026 26.7598C20.237 27.8206 20.7578 28.795 21.5227 29.5599C22.2875 30.3247 23.2619 30.8455 24.3228 31.0565C25.3836 31.2676 26.4832 31.1593 27.4825 30.7453C28.4817 30.3314 29.3358 29.6305 29.9368 28.7311C30.5377 27.8318 30.8584 26.7745 30.8584 25.6929C30.8567 24.243 30.28 22.853 29.2548 21.8278C28.2295 20.8025 26.8395 20.2258 25.3897 20.2241Z" fill="#0E10B8"/>
<path d="M25.3896 28.9741C25.246 28.9742 25.1038 28.9459 24.971 28.8909C24.8383 28.836 24.7177 28.7554 24.6162 28.6539C24.5146 28.5523 24.434 28.4317 24.3791 28.299C24.3241 28.1663 24.2959 28.024 24.2959 27.8804V23.5054C24.2959 23.2153 24.4111 22.9371 24.6162 22.732C24.8214 22.5269 25.0996 22.4116 25.3896 22.4116C25.6797 22.4116 25.9579 22.5269 26.163 22.732C26.3682 22.9371 26.4834 23.2153 26.4834 23.5054V27.8804C26.4834 28.024 26.4552 28.1663 26.4002 28.299C26.3453 28.4317 26.2647 28.5523 26.1631 28.6539C26.0616 28.7554 25.941 28.836 25.8083 28.8909C25.6755 28.9459 25.5333 28.9742 25.3896 28.9741Z" fill="#0E10B8"/>
<path d="M27.5771 26.7866H23.2021C22.9121 26.7866 22.6339 26.6714 22.4287 26.4663C22.2236 26.2612 22.1084 25.983 22.1084 25.6929C22.1084 25.4028 22.2236 25.1246 22.4287 24.9195C22.6339 24.7144 22.9121 24.5991 23.2021 24.5991H27.5771C27.8672 24.5991 28.1454 24.7144 28.3505 24.9195C28.5557 25.1246 28.6709 25.4028 28.6709 25.6929C28.6709 25.983 28.5557 26.2612 28.3505 26.4663C28.1454 26.6714 27.8672 26.7866 27.5771 26.7866Z" fill="#0E10B8"/>
</svg>
