<svg width="150" height="150" viewBox="0 0 150 150" fill="none" xmlns="http://www.w3.org/2000/svg">
<path d="M52.6087 24.8535H38.1055V70.8174H52.6087V24.8535Z" fill="#F5F5F5"/>
<path d="M52.6071 24.8535H45.3555V70.6908H52.6071V24.8535Z" fill="#EBEBEB"/>
<path d="M44.883 20.3408H39.7617V24.8534H44.883V20.3408Z" fill="#F5F5F5"/>
<path d="M44.8828 20.3408H43.6621V24.8534H44.8828V20.3408Z" fill="#EBEBEB"/>
<path d="M36.8965 24.8537V24.5903H53.0326V24.8537" fill="#E0E0E0"/>
<path d="M42.1963 26.8208H40.9688V29.4092H42.1963V26.8208Z" fill="#FAFAFA"/>
<path d="M45.3571 30.4255C45.3571 30.4528 43.7335 30.475 41.7316 30.475C39.7288 30.475 38.1055 30.4528 38.1055 30.4255C38.1055 30.3982 39.7285 30.376 41.7316 30.376C43.7338 30.376 45.3571 30.3982 45.3571 30.4255Z" fill="#E0E0E0"/>
<path d="M49.5088 26.8208H48.2812V29.4092H49.5088V26.8208Z" fill="#E0E0E0"/>
<path d="M52.6696 30.4265C52.6696 30.4538 51.0463 30.476 49.0441 30.476C47.0413 30.476 45.418 30.4538 45.418 30.4265C45.418 30.3992 47.041 30.377 49.0441 30.377C51.046 30.377 52.6696 30.3992 52.6696 30.4265Z" fill="#E0E0E0"/>
<path d="M49.5088 31.96H48.2812V34.5484H49.5088V31.96Z" fill="#E0E0E0"/>
<path d="M52.6696 35.5651C52.6696 35.5924 51.0463 35.6146 49.0441 35.6146C47.0413 35.6146 45.418 35.5924 45.418 35.5651C45.418 35.5378 47.041 35.5156 49.0441 35.5156C51.046 35.5156 52.6696 35.5378 52.6696 35.5651Z" fill="#E0E0E0"/>
<path d="M49.5088 37.2554H48.2812V39.8438H49.5088V37.2554Z" fill="#E0E0E0"/>
<path d="M52.6696 40.8596C52.6696 40.8869 51.0463 40.9091 49.0441 40.9091C47.0413 40.9091 45.418 40.8869 45.418 40.8596C45.418 40.8323 47.041 40.8101 49.0441 40.8101C51.046 40.8101 52.6696 40.8323 52.6696 40.8596Z" fill="#E0E0E0"/>
<path d="M49.5088 42.5488H48.2812V45.1372H49.5088V42.5488Z" fill="#E0E0E0"/>
<path d="M52.6696 46.1535C52.6696 46.1808 51.0463 46.203 49.0441 46.203C47.0413 46.203 45.418 46.1808 45.418 46.1535C45.418 46.1262 47.041 46.104 49.0441 46.104C51.046 46.104 52.6696 46.1262 52.6696 46.1535Z" fill="#E0E0E0"/>
<path d="M49.5088 47.6924H48.2812V50.2808H49.5088V47.6924Z" fill="#E0E0E0"/>
<path d="M52.6696 51.2971C52.6696 51.3244 51.0463 51.3466 49.0441 51.3466C47.0413 51.3466 45.418 51.3244 45.418 51.2971C45.418 51.2698 47.041 51.2476 49.0441 51.2476C51.046 51.2476 52.6696 51.2698 52.6696 51.2971Z" fill="#E0E0E0"/>
<path d="M49.5088 52.856H48.2812V55.4444H49.5088V52.856Z" fill="#E0E0E0"/>
<path d="M49.5088 58.0869H48.2812V60.6756H49.5088V58.0869Z" fill="#E0E0E0"/>
<path d="M52.6696 56.4606C52.6696 56.4879 51.0463 56.5101 49.0441 56.5101C47.0413 56.5101 45.418 56.4879 45.418 56.4606C45.418 56.4333 47.041 56.4111 49.0441 56.4111C51.046 56.4111 52.6696 56.4333 52.6696 56.4606Z" fill="#E0E0E0"/>
<path d="M42.1963 32.0386H40.9688V34.627H42.1963V32.0386Z" fill="#FAFAFA"/>
<path d="M45.3571 35.6437C45.3571 35.671 43.7335 35.6932 41.7316 35.6932C39.7288 35.6932 38.1055 35.671 38.1055 35.6437C38.1055 35.6164 39.7285 35.5942 41.7316 35.5942C43.7338 35.5945 45.3571 35.6167 45.3571 35.6437Z" fill="#E0E0E0"/>
<path d="M42.1963 37.2568H40.9688V39.8455H42.1963V37.2568Z" fill="#FAFAFA"/>
<path d="M45.3571 40.8605C45.3571 40.8878 43.7335 40.91 41.7316 40.91C39.7288 40.91 38.1055 40.8878 38.1055 40.8605C38.1055 40.8332 39.7285 40.811 41.7316 40.811C43.7338 40.811 45.3571 40.8332 45.3571 40.8605Z" fill="#E0E0E0"/>
<path d="M42.1963 42.4741H40.9688V45.0625H42.1963V42.4741Z" fill="#FAFAFA"/>
<path d="M45.3571 46.0788C45.3571 46.1061 43.7335 46.1283 41.7316 46.1283C39.7288 46.1283 38.1055 46.1061 38.1055 46.0788C38.1055 46.0515 39.7285 46.0293 41.7316 46.0293C43.7338 46.0296 45.3571 46.0518 45.3571 46.0788Z" fill="#E0E0E0"/>
<path d="M42.1963 47.6919H40.9688V50.2803H42.1963V47.6919Z" fill="#FAFAFA"/>
<path d="M45.3571 51.2971C45.3571 51.3244 43.7335 51.3466 41.7316 51.3466C39.7288 51.3466 38.1055 51.3244 38.1055 51.2971C38.1055 51.2698 39.7285 51.2476 41.7316 51.2476C43.7338 51.2476 45.3571 51.2698 45.3571 51.2971Z" fill="#E0E0E0"/>
<path d="M42.1963 52.9102H40.9688V55.4989H42.1963V52.9102Z" fill="#FAFAFA"/>
<path d="M45.3571 56.5148C45.3571 56.5421 43.7335 56.5643 41.7316 56.5643C39.7288 56.5643 38.1055 56.5421 38.1055 56.5148C38.1055 56.4875 39.7285 56.4653 41.7316 56.4653C43.7338 56.4653 45.3571 56.4875 45.3571 56.5148Z" fill="#E0E0E0"/>
<path d="M42.1944 58.127H40.9668V60.7154H42.1944V58.127Z" fill="#FAFAFA"/>
<path d="M105.724 34.5991H91.2207V80.563H105.724V34.5991Z" fill="#F5F5F5"/>
<path d="M105.722 34.5991H98.4707V80.4364H105.722V34.5991Z" fill="#EBEBEB"/>
<path d="M97.9963 30.0869H92.875V34.5995H97.9963V30.0869Z" fill="#F5F5F5"/>
<path d="M97.9961 30.0874H96.7754V34.6H97.9961V30.0874Z" fill="#EBEBEB"/>
<path d="M90.0098 34.5995V34.3364H106.146V34.5995" fill="#E0E0E0"/>
<path d="M95.3096 36.5679H94.082V39.1563H95.3096V36.5679Z" fill="#FAFAFA"/>
<path d="M98.4703 40.1725C98.4703 40.1998 96.8468 40.222 94.8449 40.222C92.8421 40.222 91.2188 40.1998 91.2188 40.1725C91.2188 40.1452 92.8418 40.123 94.8449 40.123C96.8468 40.123 98.4703 40.1452 98.4703 40.1725Z" fill="#E0E0E0"/>
<path d="M102.624 36.5679H101.396V39.1563H102.624V36.5679Z" fill="#E0E0E0"/>
<path d="M105.785 40.1725C105.785 40.1998 104.162 40.222 102.159 40.222C100.157 40.222 98.5332 40.1998 98.5332 40.1725C98.5332 40.1452 100.156 40.123 102.159 40.123C104.162 40.123 105.785 40.1452 105.785 40.1725Z" fill="#E0E0E0"/>
<path d="M102.624 41.707H101.396V44.2957H102.624V41.707Z" fill="#E0E0E0"/>
<path d="M105.785 45.3112C105.785 45.3385 104.162 45.3607 102.159 45.3607C100.157 45.3607 98.5332 45.3385 98.5332 45.3112C98.5332 45.2839 100.156 45.2617 102.159 45.2617C104.162 45.262 105.785 45.2839 105.785 45.3112Z" fill="#E0E0E0"/>
<path d="M102.624 47.0005H101.396V49.5889H102.624V47.0005Z" fill="#E0E0E0"/>
<path d="M105.785 50.6057C105.785 50.633 104.162 50.6552 102.159 50.6552C100.157 50.6552 98.5332 50.633 98.5332 50.6057C98.5332 50.5784 100.156 50.5562 102.159 50.5562C104.162 50.5562 105.785 50.5784 105.785 50.6057Z" fill="#E0E0E0"/>
<path d="M102.624 52.2949H101.396V54.8833H102.624V52.2949Z" fill="#E0E0E0"/>
<path d="M105.785 55.8996C105.785 55.9269 104.162 55.9491 102.159 55.9491C100.157 55.9491 98.5332 55.9269 98.5332 55.8996C98.5332 55.8723 100.156 55.8501 102.159 55.8501C104.162 55.8501 105.785 55.8723 105.785 55.8996Z" fill="#E0E0E0"/>
<path d="M102.624 57.438H101.396V60.0264H102.624V57.438Z" fill="#E0E0E0"/>
<path d="M105.785 61.0427C105.785 61.07 104.162 61.0922 102.159 61.0922C100.157 61.0922 98.5332 61.07 98.5332 61.0427C98.5332 61.0154 100.156 60.9932 102.159 60.9932C104.162 60.9935 105.785 61.0157 105.785 61.0427Z" fill="#E0E0E0"/>
<path d="M102.624 62.6025H101.396V65.1909H102.624V62.6025Z" fill="#E0E0E0"/>
<path d="M102.624 67.8335H101.396V70.4219H102.624V67.8335Z" fill="#E0E0E0"/>
<path d="M105.785 66.2072C105.785 66.2345 104.162 66.2567 102.159 66.2567C100.157 66.2567 98.5332 66.2345 98.5332 66.2072C98.5332 66.1799 100.156 66.1577 102.159 66.1577C104.162 66.1577 105.785 66.1799 105.785 66.2072Z" fill="#E0E0E0"/>
<path d="M95.3096 41.7852H94.082V44.3736H95.3096V41.7852Z" fill="#FAFAFA"/>
<path d="M98.4703 45.3903C98.4703 45.4176 96.8468 45.4398 94.8449 45.4398C92.8421 45.4398 91.2188 45.4176 91.2188 45.3903C91.2188 45.363 92.8418 45.3408 94.8449 45.3408C96.8468 45.3408 98.4703 45.363 98.4703 45.3903Z" fill="#E0E0E0"/>
<path d="M95.3096 47.0024H94.082V49.5911H95.3096V47.0024Z" fill="#FAFAFA"/>
<path d="M98.4703 50.6071C98.4703 50.6344 96.8468 50.6566 94.8449 50.6566C92.8421 50.6566 91.2188 50.6344 91.2188 50.6071C91.2188 50.5798 92.8418 50.5576 94.8449 50.5576C96.8468 50.5579 98.4703 50.5798 98.4703 50.6071Z" fill="#E0E0E0"/>
<path d="M95.3096 52.2212H94.082V54.8099H95.3096V52.2212Z" fill="#FAFAFA"/>
<path d="M98.4703 55.8254C98.4703 55.8527 96.8468 55.8749 94.8449 55.8749C92.8421 55.8749 91.2188 55.8527 91.2188 55.8254C91.2188 55.7981 92.8418 55.7759 94.8449 55.7759C96.8468 55.7759 98.4703 55.7981 98.4703 55.8254Z" fill="#E0E0E0"/>
<path d="M95.3096 57.438H94.082V60.0264H95.3096V57.438Z" fill="#FAFAFA"/>
<path d="M98.4703 61.0436C98.4703 61.0709 96.8468 61.0931 94.8449 61.0931C92.8421 61.0931 91.2188 61.0709 91.2188 61.0436C91.2188 61.0163 92.8418 60.9941 94.8449 60.9941C96.8468 60.9944 98.4703 61.0166 98.4703 61.0436Z" fill="#E0E0E0"/>
<path d="M95.3096 62.6562H94.082V65.2449H95.3096V62.6562Z" fill="#FAFAFA"/>
<path d="M98.4703 66.2609C98.4703 66.2882 96.8468 66.3104 94.8449 66.3104C92.8421 66.3104 91.2188 66.2882 91.2188 66.2609C91.2188 66.2336 92.8418 66.2114 94.8449 66.2114C96.8468 66.2114 98.4703 66.2336 98.4703 66.2609Z" fill="#E0E0E0"/>
<path d="M95.3116 67.874H94.084V70.4624H95.3116V67.874Z" fill="#FAFAFA"/>
<path d="M123.831 52.4326H100.348V83.4058H123.831V52.4326Z" fill="#EBEBEB"/>
<path d="M123.829 52.4326H112.818V83.4058H123.829V52.4326Z" fill="#E0E0E0"/>
<path d="M107.381 56.626H105.27V61.756H107.381V56.626Z" fill="#F5F5F5"/>
<path d="M107.381 76.7036H105.27V81.8336H107.381V76.7036Z" fill="#F5F5F5"/>
<path d="M112.82 63.7689C112.82 63.8265 110.028 63.8734 106.584 63.8734C103.139 63.8734 100.348 63.8265 100.348 63.7689C100.348 63.7113 103.139 63.6646 106.584 63.6646C110.028 63.6646 112.82 63.7113 112.82 63.7689Z" fill="#F5F5F5"/>
<path d="M107.381 66.7402H105.27V71.8702H107.381V66.7402Z" fill="#F5F5F5"/>
<path d="M112.82 73.8832C112.82 73.9408 110.028 73.9876 106.584 73.9876C103.139 73.9876 100.348 73.9408 100.348 73.8832C100.348 73.8256 103.139 73.7788 106.584 73.7788C110.028 73.7791 112.82 73.8259 112.82 73.8832Z" fill="#F5F5F5"/>
<path d="M117.27 56.625H115.158V61.755H117.27V56.625Z" fill="#F5F5F5"/>
<path d="M121.85 56.6255H119.738V61.7555H121.85V56.6255Z" fill="#F5F5F5"/>
<path d="M117.27 66.3599H115.158V71.4896H117.27V66.3599Z" fill="#F5F5F5"/>
<path d="M121.85 66.3599H119.738V71.4896H121.85V66.3599Z" fill="#F5F5F5"/>
<path d="M117.27 76.0938H115.158V81.2234H117.27V76.0938Z" fill="#F5F5F5"/>
<path d="M121.85 76.0938H119.738V81.2234H121.85V76.0938Z" fill="#F5F5F5"/>
<path d="M125.596 51.3545H98.582V52.4714H125.596V51.3545Z" fill="#E0E0E0"/>
<path d="M123.995 52.5771C123.995 52.6347 118.747 52.6815 112.274 52.6815C105.798 52.6815 100.551 52.6347 100.551 52.5771C100.551 52.5195 105.798 52.4727 112.274 52.4727C118.747 52.4727 123.995 52.5195 123.995 52.5771Z" fill="#EBEBEB"/>
<path d="M47.2277 84.0262H25.8857L25.793 50.2969H47.1347L47.2277 84.0262Z" fill="#EBEBEB"/>
<path d="M47.1378 50.2969H36.4668V84.0262H47.1378V50.2969Z" fill="#E0E0E0"/>
<path d="M35.7668 43.6567H28.2305V50.2969H35.7668V43.6567Z" fill="#EBEBEB"/>
<path d="M35.7668 43.6567H33.9707V50.2969H35.7668V43.6567Z" fill="#E0E0E0"/>
<path d="M47.7606 49.9092H24.0156V50.2965H47.7606V49.9092Z" fill="#E0E0E0"/>
<path d="M31.8144 53.1929H30.0078V57.002H31.8144V53.1929Z" fill="white"/>
<path d="M36.464 58.4964C36.464 58.5366 34.0751 58.569 31.1288 58.569C28.1816 58.569 25.793 58.5366 25.793 58.4964C25.793 58.4562 28.1813 58.4238 31.1288 58.4238C34.0751 58.4235 36.464 58.4562 36.464 58.4964Z" fill="#E0E0E0"/>
<path d="M42.5781 53.1934H40.7715V57.0025H42.5781V53.1934Z" fill="#F5F5F5"/>
<path d="M47.2276 58.4969C47.2276 58.5371 44.8387 58.5695 41.8924 58.5695C38.9452 58.5695 36.5566 58.5371 36.5566 58.4969C36.5566 58.4567 38.9449 58.4243 41.8924 58.4243C44.8384 58.424 47.2276 58.4567 47.2276 58.4969Z" fill="#EBEBEB"/>
<path d="M42.5781 60.7554H40.7715V64.5645H42.5781V60.7554Z" fill="#F5F5F5"/>
<path d="M47.2276 66.0594C47.2276 66.0996 44.8387 66.132 41.8924 66.132C38.9452 66.132 36.5566 66.0996 36.5566 66.0594C36.5566 66.0192 38.9449 65.9868 41.8924 65.9868C44.8384 65.9868 47.2276 66.0195 47.2276 66.0594Z" fill="#EBEBEB"/>
<path d="M42.5781 68.5464H40.7715V72.3555H42.5781V68.5464Z" fill="#F5F5F5"/>
<path d="M47.2276 73.8499C47.2276 73.8901 44.8387 73.9225 41.8924 73.9225C38.9452 73.9225 36.5566 73.8898 36.5566 73.8499C36.5566 73.8097 38.9449 73.7773 41.8924 73.7773C44.8384 73.777 47.2276 73.8097 47.2276 73.8499Z" fill="#EBEBEB"/>
<path d="M42.5781 76.3374H40.7715V80.1465H42.5781V76.3374Z" fill="#F5F5F5"/>
<path d="M47.2276 81.6405C47.2276 81.6807 44.8387 81.7134 41.8924 81.7134C38.9452 81.7134 36.5566 81.6807 36.5566 81.6405C36.5566 81.6003 38.9449 81.5679 41.8924 81.5679C44.8384 81.5679 47.2276 81.6003 47.2276 81.6405Z" fill="#EBEBEB"/>
<path d="M31.8144 60.8706H30.0078V64.6797H31.8144V60.8706Z" fill="white"/>
<path d="M36.464 66.1746C36.464 66.2148 34.0751 66.2476 31.1288 66.2476C28.1816 66.2476 25.793 66.2148 25.793 66.1746C25.793 66.1344 28.1813 66.1021 31.1288 66.1021C34.0751 66.1021 36.464 66.1344 36.464 66.1746Z" fill="#E0E0E0"/>
<path d="M31.8144 68.5483H30.0078V72.3574H31.8144V68.5483Z" fill="white"/>
<path d="M36.464 73.8524C36.464 73.8926 34.0751 73.925 31.1288 73.925C28.1816 73.925 25.793 73.8923 25.793 73.8524C25.793 73.8125 28.1813 73.7798 31.1288 73.7798C34.0751 73.7795 36.464 73.8122 36.464 73.8524Z" fill="#E0E0E0"/>
<path d="M31.8144 76.2271H30.0078V80.0362H31.8144V76.2271Z" fill="white"/>
<path d="M36.464 81.5306C36.464 81.5708 34.0751 81.6032 31.1288 81.6032C28.1816 81.6032 25.793 81.5708 25.793 81.5306C25.793 81.4904 28.1813 81.458 31.1288 81.458C34.0751 81.458 36.464 81.4904 36.464 81.5306Z" fill="#E0E0E0"/>
<path d="M131.751 43.4776C131.864 42.6577 130.707 41.9833 129.837 41.9134C129.423 41.8801 128.992 41.9434 128.599 41.8066C127.748 41.5099 127.408 40.4104 126.578 40.0603C125.957 39.7984 125.242 40.0315 124.64 40.3345C124.039 40.6375 123.444 41.0185 122.771 41.0617C122.187 41.0992 121.552 40.8823 121.04 41.1679C120.659 41.3809 120.459 41.8201 120.107 42.0793C119.764 42.3328 119.315 42.3865 118.889 42.4099C118.462 42.433 118.02 42.4375 117.632 42.6154C117.243 42.7933 116.922 43.204 117.003 43.6234L131.751 43.4776Z" fill="#F5F5F5"/>
<path d="M95.6391 20.1134C95.8158 18.8303 94.0047 17.7746 92.6439 17.6648C91.995 17.6126 91.3209 17.7116 90.7062 17.4974C89.3742 17.033 88.842 15.3122 87.5424 14.7641C86.5707 14.3543 85.452 14.7191 84.51 15.1931C83.568 15.6671 82.6371 16.2638 81.5847 16.3313C80.6694 16.3898 79.6752 16.0505 78.8742 16.4975C78.2772 16.8308 77.9646 17.5184 77.4147 17.9243C76.8765 18.3212 76.1745 18.4052 75.5067 18.4415C74.8389 18.4778 74.1477 18.4847 73.5396 18.7631C72.9315 19.0415 72.4284 19.6844 72.5547 20.3411L95.6391 20.1134Z" fill="#EBEBEB"/>
<path d="M33.9624 37.8586C34.1031 36.8356 32.6595 35.9941 31.5744 35.9065C31.0569 35.8648 30.5196 35.944 30.0294 35.773C28.9674 35.4028 28.5432 34.0309 27.507 33.5938C26.7324 33.2671 25.8405 33.5578 25.0896 33.9358C24.3387 34.3138 23.5965 34.7893 22.7574 34.843C22.0275 34.8898 21.2349 34.6192 20.5965 34.9756C20.1207 35.2414 19.8714 35.7895 19.4328 36.1129C19.0038 36.4294 18.444 36.4963 17.9118 36.5254C17.3796 36.5545 16.8285 36.5599 16.3437 36.7816C15.8589 37.0036 15.4578 37.516 15.5586 38.0398L33.9624 37.8586Z" fill="#F5F5F5"/>
<path d="M23.3494 60.4227C19.9492 60.5016 17.1766 63.2727 17.0956 66.6729C17.0611 68.1291 17.5138 69.4773 18.3001 70.569L18.2983 70.5696L18.3607 70.6545C18.3637 70.6584 18.3667 70.6626 18.3694 70.6665L22.9066 76.8378C23.3059 77.3811 24.1234 77.364 24.4996 76.8045L28.6006 70.7076C29.3767 69.5241 29.9089 68.2869 29.9089 66.8286C29.9095 63.2391 26.9578 60.339 23.3494 60.4227ZM23.5018 71.4885C20.8411 71.4885 18.6844 69.3318 18.6844 66.6711C18.6844 64.0104 20.8411 61.8537 23.5018 61.8537C26.1625 61.8537 28.3192 64.0104 28.3192 66.6711C28.3192 69.3318 26.1622 71.4885 23.5018 71.4885Z" fill="#6769FE"/>
<g opacity="0.3">
<path d="M23.3494 60.4227C19.9492 60.5016 17.1766 63.2727 17.0956 66.6729C17.0611 68.1291 17.5138 69.4773 18.3001 70.569L18.2983 70.5696L18.3607 70.6545C18.3637 70.6584 18.3667 70.6626 18.3694 70.6665L22.9066 76.8378C23.3059 77.3811 24.1234 77.364 24.4996 76.8045L28.6006 70.7076C29.3767 69.5241 29.9089 68.2869 29.9089 66.8286C29.9095 63.2391 26.9578 60.339 23.3494 60.4227ZM23.5018 71.4885C20.8411 71.4885 18.6844 69.3318 18.6844 66.6711C18.6844 64.0104 20.8411 61.8537 23.5018 61.8537C26.1625 61.8537 28.3192 64.0104 28.3192 66.6711C28.3192 69.3318 26.1622 71.4885 23.5018 71.4885Z" fill="black"/>
</g>
<path d="M22.9705 60.4227C19.5703 60.5016 16.7977 63.2727 16.7167 66.6729C16.6819 68.1291 17.1349 69.4773 17.9212 70.569L17.9194 70.5696L17.9818 70.6545C17.9848 70.6584 17.9878 70.6626 17.9905 70.6665L22.5277 76.8378C22.927 77.3811 23.7445 77.364 24.1207 76.8045L28.2217 70.7076C28.9978 69.5241 29.53 68.2869 29.53 66.8286C29.5306 63.2391 26.5792 60.339 22.9705 60.4227ZM23.1229 70.62C21.1078 70.62 19.4743 68.9865 19.4743 66.9714C19.4743 64.9563 21.1078 63.3228 23.1229 63.3228C25.138 63.3228 26.7715 64.9563 26.7715 66.9714C26.7712 68.9865 25.1377 70.62 23.1229 70.62Z" fill="#6769FE"/>
<path d="M123.857 54.3495C121.266 54.4095 119.153 56.5215 119.091 59.1129C119.065 60.2226 119.41 61.2501 120.009 62.082L120.008 62.0823L120.056 62.1471C120.058 62.1501 120.06 62.1531 120.062 62.1564L123.52 66.8595C123.825 67.2735 124.447 67.2606 124.734 66.834L127.86 62.1876C128.451 61.2855 128.857 60.3429 128.857 59.2314C128.857 56.496 126.607 54.2856 123.857 54.3495ZM123.973 62.7828C121.945 62.7828 120.302 61.1391 120.302 59.1114C120.302 57.0837 121.945 55.44 123.973 55.44C126.001 55.44 127.645 57.0837 127.645 59.1114C127.645 61.1391 126.001 62.7828 123.973 62.7828Z" fill="#6769FE"/>
<g opacity="0.3">
<path d="M123.857 54.3495C121.266 54.4095 119.153 56.5215 119.091 59.1129C119.065 60.2226 119.41 61.2501 120.009 62.082L120.008 62.0823L120.056 62.1471C120.058 62.1501 120.06 62.1531 120.062 62.1564L123.52 66.8595C123.825 67.2735 124.447 67.2606 124.734 66.834L127.86 62.1876C128.451 61.2855 128.857 60.3429 128.857 59.2314C128.857 56.496 126.607 54.2856 123.857 54.3495ZM123.973 62.7828C121.945 62.7828 120.302 61.1391 120.302 59.1114C120.302 57.0837 121.945 55.44 123.973 55.44C126.001 55.44 127.645 57.0837 127.645 59.1114C127.645 61.1391 126.001 62.7828 123.973 62.7828Z" fill="black"/>
</g>
<path d="M123.568 54.3495C120.977 54.4095 118.864 56.5215 118.802 59.1129C118.776 60.2226 119.121 61.2501 119.72 62.082L119.719 62.0823L119.767 62.1471C119.769 62.1501 119.771 62.1531 119.773 62.1564L123.231 66.8595C123.536 67.2735 124.158 67.2606 124.445 66.834L127.571 62.1876C128.162 61.2855 128.568 60.3429 128.568 59.2314C128.568 56.496 126.318 54.2856 123.568 54.3495ZM123.684 62.121C122.149 62.121 120.904 60.876 120.904 59.3406C120.904 57.8049 122.149 56.5602 123.684 56.5602C125.22 56.5602 126.465 57.8052 126.465 59.3406C126.465 60.876 125.22 62.121 123.684 62.121Z" fill="#6769FE"/>
<path d="M26.8537 83.457L5.42773 136.665L45.6016 130.059L75.0628 136.665L105.238 130.059L145.591 137.756L123.986 83.457L99.8815 77.3862L75.5092 82.0287L50.6011 77.3862L26.8537 83.457Z" fill="white"/>
<path d="M26.8545 83.4572C26.8545 83.4572 26.9856 83.4203 27.2481 83.3516C27.5121 83.2829 27.9039 83.1812 28.4208 83.0468C29.4597 82.7789 31.0011 82.3814 33.0165 81.8618C37.0548 80.8247 42.9921 79.3001 50.5923 77.3483L50.6007 77.3462L50.6094 77.3477C57.4743 78.623 65.9004 80.1884 75.5199 81.9755H75.5001C82.7955 80.5829 91.0221 79.0127 99.8706 77.324L99.8844 77.3213L99.8982 77.3246C107.384 79.2077 115.494 81.2483 124.004 83.3891L124.039 83.3978L124.052 83.4311C130.654 100.019 137.955 118.359 145.664 137.728L145.716 137.859L145.577 137.833C138.942 136.567 131.929 135.23 124.819 133.874C118.194 132.61 111.655 131.362 105.225 130.135L105.256 130.135C94.8873 132.404 84.7995 134.612 75.0801 136.739L75.0639 136.742L75.0477 136.739C64.7808 134.435 54.9327 132.224 45.588 130.127L45.6144 130.128C30.8532 132.551 17.34 134.769 5.43839 136.722L5.33789 136.739L5.37599 136.644C12.0033 120.218 17.3697 106.916 21.0798 97.7201C22.9362 93.1271 24.3783 89.5598 25.3566 87.1391C25.8462 85.9316 26.22 85.0106 26.4717 84.3902C26.7228 83.771 26.8545 83.4572 26.8545 83.4572C26.8545 83.4572 26.73 83.7794 26.4819 84.4022C26.2329 85.0253 25.863 85.9502 25.3782 87.1628C24.4056 89.5874 22.9719 93.161 21.1263 97.7618C17.43 106.958 12.0837 120.26 5.48129 136.687L5.41889 136.609C17.3193 134.648 30.8313 132.422 45.591 129.99L45.6045 129.988L45.6177 129.991C54.9633 132.085 64.8123 134.292 75.0798 136.593H75.0474C84.7665 134.464 94.854 132.254 105.222 129.984L105.238 129.98L105.253 129.983C111.684 131.21 118.223 132.457 124.848 133.721C131.958 135.077 138.97 136.415 145.606 137.681L145.519 137.786C137.815 118.415 130.519 100.073 123.922 83.4833L123.97 83.5253C115.461 81.38 107.352 79.3355 99.8667 77.4482L99.894 77.4491C91.0443 79.1312 82.8165 80.6951 75.5199 82.082L75.51 82.0838L75.5001 82.082C65.8827 80.2838 57.4584 78.7085 50.595 77.4254L50.6118 77.4248C43.0131 79.3583 37.0773 80.8688 33.0399 81.8963C31.0203 82.4081 29.4756 82.7996 28.4343 83.0636C27.9144 83.1944 27.5205 83.2934 27.255 83.36C26.9904 83.4257 26.8545 83.4572 26.8545 83.4572Z" fill="#263238"/>
<path d="M28.1044 84.8851L9.17773 133.987L45.4237 128.095L75.5098 135.058L105.239 127.916L142.199 135.058L122.737 84.8851L100.239 79.3501L75.5098 83.9923L50.2447 79.3501L28.1044 84.8851Z" fill="white"/>
<path d="M11.2812 128.531L40.0912 121.858L39.0274 115.652L41.421 114.145L37.6972 99.6498L26.1766 89.8872L11.2812 128.531Z" fill="#455A64"/>
<path d="M9.17773 133.987L10.5826 130.342L58.8874 119.12L61.5112 126.341L60.6607 127.799L51.5878 129.521L45.4237 128.094L9.17773 133.987Z" fill="#EBEBEB"/>
<path d="M61.5117 118.42L63.4284 125.565L68.9907 127.983L76.9068 124.466L93.51 119.629L88.329 111.825L61.5117 118.42Z" fill="#EBEBEB"/>
<path d="M42.2158 121.067L51.1915 119.12L49.4005 113.288L42.8617 114.868L41.1211 116.096L42.2158 121.067Z" fill="#E0E0E0"/>
<path d="M40.3828 101.74L43.642 112.434L48.7345 111.313L47.818 107.204L59.0212 104.693L40.3828 101.74Z" fill="#455A64"/>
<path d="M27.0254 87.6881L41.1227 99.0059L59.8382 102.554L79.8002 97.5914L70.688 83.1056L50.2463 79.3496L28.106 84.8846L27.0254 87.6881Z" fill="#EBEBEB"/>
<path d="M73.4121 83.6074L102.679 128.531L105.239 127.917L76.9125 83.7295L75.5097 83.9926L73.4121 83.6074Z" fill="#EBEBEB"/>
<path d="M49.7012 108.335L53.4098 119.12L86.3297 110.709L80.2373 100.337L49.7012 108.335Z" fill="#E0E0E0"/>
<path d="M68.0176 133.324L68.338 132.848L70.5001 129.634L75.6889 127.984L79.2571 125.296L94.7296 121.067L99.5347 129.287L75.5104 135.058" fill="#E0E0E0"/>
<path d="M95.4258 80.2535L103.18 88.8791L122.739 84.8846L100.241 79.3496L95.4258 80.2535Z" fill="#E0E0E0"/>
<path d="M126.855 95.4973L112.49 99.4882L105.24 89.8876L123.229 86.1499L126.855 95.4973Z" fill="#E0E0E0"/>
<path d="M78.4492 83.441L93.5101 105.075L110.893 100.087L93.5101 80.6138L78.4492 83.441Z" fill="#EBEBEB"/>
<path d="M120.557 130.876L137.936 124.068L142.2 135.058L120.557 130.876Z" fill="#E0E0E0"/>
<path d="M102.381 103.78L111.824 101.319L121.799 113.288L112.09 116.512L102.381 103.78Z" fill="#455A64"/>
<path d="M113.951 100.337L124.458 112.385L132.374 109.729L127.169 96.312L113.951 100.337Z" fill="#E0E0E0"/>
<path d="M121.798 128.062L113.951 117.177L132.918 111.131L136.772 121.067L134.3 123.556L121.798 128.062Z" fill="#455A64"/>
<path d="M94.4336 106.666L108.852 128.531L117.73 130.33L119.405 129.563L101.136 104.646L94.4336 106.666Z" fill="#E0E0E0"/>
<path d="M35.3451 122.958L31.7529 106.069L19.0863 108.282L11.2812 128.531L35.3451 122.958Z" fill="#E0E0E0"/>
<path d="M46.9925 80.1636V87.8958L49.7042 88.2384L57.2759 97.0596L63.7847 96.3123L66.8831 100.803L59.8382 102.555L41.1227 99.0066L27.0254 87.6888L28.106 84.8853L46.9925 80.1636Z" fill="#455A64"/>
<path d="M86.5801 81.9809L97.2151 97.5005L106.376 95.0255L93.511 80.6138L86.5801 81.9809Z" fill="#E0E0E0"/>
<path d="M117.798 98.0128L113.951 91.9969L124.355 89.0566L126.853 95.497L117.798 98.0128Z" fill="#EBEBEB"/>
<path d="M102.381 118.717L107.417 116.977L117.184 130.219L108.852 128.531L102.381 118.717Z" fill="#EBEBEB"/>
<path d="M55.9238 130.525L60.6077 129.955L62.168 127.67L68.0174 129.509L66.4874 132.97L55.9238 130.525Z" fill="#455A64"/>
<path d="M28.105 84.8848C28.105 84.8848 28.5982 84.7552 29.5645 84.5101C30.5332 84.2656 31.9699 83.9032 33.8485 83.4289C37.6138 82.483 43.1491 81.0922 50.2357 79.3117L50.2438 79.3096L50.2522 79.3111C57.1495 80.5741 65.6986 82.1395 75.5201 83.938H75.5002C82.8946 82.5469 91.2397 80.977 100.228 79.2859L100.242 79.2832L100.255 79.2865C107.287 81.0145 114.845 82.8718 122.754 84.8155L122.79 84.8242L122.803 84.8584C128.761 100.212 135.34 117.167 142.272 135.029L142.322 135.16L142.184 135.133C136.262 133.989 129.993 132.777 123.64 131.55C117.414 130.347 111.269 129.159 105.224 127.991L105.257 127.99C95.0239 130.447 85.0819 132.835 75.5273 135.129L75.5101 135.134L75.493 135.13C64.9522 132.688 54.8917 130.357 45.4084 128.16L45.4348 128.161C32.1196 130.321 19.945 132.296 9.18704 134.041L9.08984 134.057L9.12524 133.965C14.9836 118.799 19.7251 106.523 23.0023 98.0389C24.6424 93.8017 25.9159 90.5113 26.7802 88.2787C27.2128 87.1654 27.5428 86.3161 27.7651 85.7437C27.9883 85.174 28.105 84.8848 28.105 84.8848C28.105 84.8848 27.9955 85.1821 27.7768 85.7566C27.5569 86.3314 27.2308 87.1846 26.803 88.303C25.9444 90.5395 24.6793 93.8359 23.05 98.0809C19.7863 106.566 15.0649 118.84 9.23114 134.007L9.16934 133.931C19.9261 132.179 32.0995 130.195 45.4132 128.027L45.4267 128.024L45.4399 128.028C54.9241 130.221 64.9855 132.547 75.5273 134.985H75.493C85.0471 132.689 94.9891 130.299 105.221 127.84L105.238 127.836L105.254 127.84C111.299 129.008 117.445 130.195 123.671 131.398C130.023 132.626 136.292 133.837 142.215 134.982L142.128 135.086C135.201 117.223 128.626 100.266 122.672 84.9106L122.721 84.9535C114.813 83.0056 107.256 81.1444 100.225 79.4125L100.252 79.4131C91.2625 81.097 82.9165 82.6603 75.5209 84.0457L75.511 84.0475L75.5011 84.0457C65.6821 82.2352 57.1345 80.6593 50.239 79.3879L50.2555 79.3873C43.1707 81.1498 37.6366 82.5262 33.8725 83.4628C31.9894 83.929 30.5494 84.2857 29.5786 84.526C28.6075 84.7657 28.105 84.8848 28.105 84.8848Z" fill="#263238"/>
<g opacity="0.2">
<path d="M75.0647 136.665L75.5111 82.0282L50.603 77.3857L45.6035 130.059L75.0647 136.665Z" fill="black"/>
</g>
<g opacity="0.2">
<path d="M99.8828 77.3857L105.239 130.059L145.592 137.756L123.987 83.4565L99.8828 77.3857Z" fill="black"/>
</g>
<path d="M75.702 30.3269C58.299 30.7307 44.1093 44.9138 43.695 62.3165C43.5177 69.7694 45.8352 76.6694 49.8603 82.2572L49.8516 82.2599L50.1711 82.6946C50.1864 82.715 50.2011 82.7357 50.2161 82.7561L73.4379 114.342C75.4821 117.122 79.665 117.035 81.5913 114.171L102.581 82.9664C106.553 76.9088 109.277 70.5773 109.277 63.1139C109.277 44.7419 94.1709 29.8985 75.702 30.3269ZM76.4811 86.963C62.8638 86.963 51.8247 75.9239 51.8247 62.3066C51.8247 48.6893 62.8638 37.6502 76.4811 37.6502C90.0984 37.6502 101.138 48.6893 101.138 62.3066C101.138 75.9239 90.0987 86.963 76.4811 86.963Z" fill="#6769FE"/>
<g opacity="0.3">
<path d="M75.702 30.3269C58.299 30.7307 44.1093 44.9138 43.695 62.3165C43.5177 69.7694 45.8352 76.6694 49.8603 82.2572L49.8516 82.2599L50.1711 82.6946C50.1864 82.715 50.2011 82.7357 50.2161 82.7561L73.4379 114.342C75.4821 117.122 79.665 117.035 81.5913 114.171L102.581 82.9664C106.553 76.9088 109.277 70.5773 109.277 63.1139C109.277 44.7419 94.1709 29.8985 75.702 30.3269ZM76.4811 86.963C62.8638 86.963 51.8247 75.9239 51.8247 62.3066C51.8247 48.6893 62.8638 37.6502 76.4811 37.6502C90.0984 37.6502 101.138 48.6893 101.138 62.3066C101.138 75.9239 90.0987 86.963 76.4811 86.963Z" fill="black"/>
</g>
<path d="M73.7587 30.3269C56.356 30.7307 42.166 44.9138 41.7517 62.3165C41.5744 69.7694 43.8919 76.6694 47.917 82.2572L47.9083 82.2599L48.2278 82.6946C48.2431 82.715 48.2578 82.7357 48.2728 82.7561L71.4946 114.342C73.5388 117.122 77.7217 117.035 79.6477 114.171L100.637 82.9664C104.609 76.9088 107.333 70.5773 107.333 63.1139C107.334 44.7419 92.2276 29.8985 73.7587 30.3269ZM74.5381 86.963C60.9208 86.963 49.8817 75.9239 49.8817 62.3066C49.8817 48.6893 60.9208 37.6502 74.5381 37.6502C88.1554 37.6502 99.1945 48.6893 99.1945 62.3066C99.1945 75.9239 88.1554 86.963 74.5381 86.963Z" fill="#6769FE"/>
<g opacity="0.3">
<path d="M88.7242 80.9033C88.3297 81.35 62.2558 88.2344 61.8613 88.6811C66.8617 90.206 72.9703 91.5335 78.1894 91.2311C81.1324 91.0604 84.2008 90.536 86.5273 88.7258C88.8538 86.915 90.1405 83.4884 88.7242 80.9033Z" fill="black"/>
</g>
</svg>
