<svg width="23" height="23" viewBox="0 0 23 23" fill="none" xmlns="http://www.w3.org/2000/svg">
<g clip-path="url(#clip0_367_7741)">
<path d="M22.6147 11.8693C22.6147 17.8517 17.7662 22.7001 11.7839 22.7001C5.80328 22.7001 0.953125 17.8517 0.953125 11.8693C0.953125 5.88704 5.80328 1.03857 11.7839 1.03857C14.1684 1.03857 16.3717 1.80857 18.1605 3.11334C18.4795 3.3447 18.7851 3.59386 19.076 3.85965C21.2507 5.84134 22.6147 8.69458 22.6147 11.8693Z" fill="#6769FE"/>
<path d="M19.4706 18.8972V19.4996C18.0457 20.9347 16.223 21.9721 14.1821 22.4341C14.084 22.4561 13.9858 22.4764 13.8877 22.495C13.6524 22.5424 13.4138 22.5813 13.1735 22.6118C12.7183 22.6693 12.2546 22.6998 11.7841 22.6998C11.312 22.6998 10.8483 22.6693 10.393 22.6118C10.1527 22.5813 9.91581 22.5424 9.68058 22.495C9.58243 22.4764 9.48258 22.4544 9.38443 22.4324C7.3435 21.9721 5.52258 20.9347 4.09766 19.5013V18.8972C4.09766 17.5721 4.85243 16.3638 6.04381 15.7833L8.22689 14.7206L9.68058 14.0115H13.8877L15.338 14.7189L17.5244 15.7833C18.1079 16.068 18.5997 16.5108 18.9438 17.0613C19.2879 17.6118 19.4704 18.248 19.4706 18.8972Z" fill="#EDEDED"/>
<path d="M11.2877 15.7473H11.4569V22.5042H11.2877V15.7473ZM5.14679 18.1149C5.11814 18.1148 5.08997 18.1076 5.06491 18.0937C5.03984 18.0798 5.01871 18.0598 5.00349 18.0355C4.98827 18.0113 4.97946 17.9835 4.97789 17.9549C4.97631 17.9263 4.98202 17.8978 4.99448 17.872C5.3683 17.0999 5.99028 16.4755 6.76091 16.0986C6.78089 16.0889 6.80259 16.0832 6.82478 16.0818C6.84697 16.0805 6.86921 16.0835 6.89022 16.0907C6.91124 16.098 6.93063 16.1093 6.94728 16.124C6.96393 16.1387 6.97751 16.1566 6.98726 16.1766C6.997 16.1965 7.00272 16.2183 7.00407 16.2404C7.00543 16.2626 7.00241 16.2849 6.99517 16.3059C6.98793 16.3269 6.97663 16.3463 6.9619 16.3629C6.94717 16.3796 6.92931 16.3932 6.90933 16.4029C6.20692 16.7463 5.64 17.3154 5.29927 18.0191C5.28546 18.0478 5.26382 18.072 5.23684 18.089C5.20986 18.1059 5.17865 18.1149 5.14679 18.1149ZM4.78447 19.7011C4.73958 19.7011 4.69654 19.6832 4.6648 19.6515C4.63306 19.6197 4.61523 19.5767 4.61523 19.5318C4.61523 19.2614 4.644 18.9908 4.7007 18.7273C4.70512 18.7053 4.71386 18.6844 4.72642 18.6659C4.73898 18.6473 4.7551 18.6314 4.77385 18.6191C4.7926 18.6068 4.8136 18.5984 4.83564 18.5943C4.85768 18.5902 4.88031 18.5905 4.90223 18.5952C4.92414 18.6 4.9449 18.609 4.9633 18.6218C4.98169 18.6346 4.99736 18.6509 5.00939 18.6699C5.02143 18.6888 5.02958 18.7099 5.03338 18.732C5.03718 18.7541 5.03656 18.7767 5.03154 18.7985C4.97975 19.0395 4.95366 19.2853 4.9537 19.5318C4.9537 19.5767 4.93587 19.6197 4.90413 19.6515C4.87239 19.6832 4.82935 19.7011 4.78447 19.7011Z" fill="white"/>
<path d="M9.68164 11.4812V14.0119L11.7848 15.7477L13.888 14.0119V11.4812H9.68164Z" fill="#F2B58C"/>
<path d="M13.8867 13.5085C13.8867 13.5085 12.6848 13.7742 11.7837 15.7478C11.7837 15.7478 13.7885 16.1379 13.8869 16.859C13.8869 16.859 13.6796 15.2281 14.499 14.3104L13.8867 13.5085ZM9.68047 13.5085C9.68047 13.5085 10.8823 13.7742 11.7837 15.7478C11.7837 15.7478 9.77879 16.1379 9.68047 16.859C9.68047 16.859 9.88777 15.2281 9.06836 14.3104L9.68047 13.5085Z" fill="white"/>
<path d="M15.9344 7.19203C15.9344 9.48985 14.0716 13.2583 11.7737 13.2583C9.47567 13.2583 7.61328 9.48985 7.61328 7.19203C7.61328 4.89388 9.47584 3.03149 11.7737 3.03149C14.0715 3.03149 15.9344 4.89405 15.9344 7.19203Z" fill="#2F4867"/>
<path d="M15.9956 9.68217C15.9955 9.90321 15.9077 10.1152 15.7514 10.2715C15.5951 10.4278 15.3831 10.5156 15.1621 10.5156C14.7001 10.5156 14.3247 10.1403 14.3247 9.68217C14.3247 9.46006 14.413 9.24705 14.57 9.08996C14.727 8.93287 14.94 8.84457 15.1621 8.84448C15.6243 8.84448 15.9956 9.21984 15.9956 9.68217ZM9.24308 9.68217C9.24304 9.90321 9.15521 10.1152 8.99892 10.2715C8.84262 10.4278 8.63065 10.5156 8.40962 10.5156C7.94745 10.5156 7.57227 10.1403 7.57227 9.68217C7.57227 9.46006 7.66048 9.24705 7.8175 9.08996C7.97452 8.93287 8.18751 8.84457 8.40962 8.84448C8.87179 8.84448 9.24308 9.21984 9.24308 9.68217Z" fill="#FFBF9C"/>
<path d="M15.2235 8.93404C15.1599 11.6815 13.6417 13.8824 11.7763 13.8824C9.8704 13.8824 8.32617 11.5859 8.32617 8.75466V8.74671C8.32668 8.31804 8.69374 7.98111 9.12173 8.00277C9.88259 8.04152 10.8597 8.05523 11.4495 7.92187C11.823 7.83794 12.3124 7.60609 12.7906 7.3404C13.6287 6.87501 14.6744 7.2986 14.9499 8.21684C15.0311 8.48761 15.1226 8.73909 15.2235 8.93404Z" fill="#FFCEAB"/>
<path d="M11.7898 12.3817C11.6026 12.3815 11.4184 12.335 11.2536 12.2463C11.2403 12.2392 11.2287 12.2296 11.2192 12.218C11.2097 12.2064 11.2026 12.193 11.1982 12.1786C11.1939 12.1643 11.1924 12.1492 11.1939 12.1343C11.1954 12.1194 11.1998 12.1049 11.2069 12.0917C11.214 12.0785 11.2236 12.0668 11.2352 12.0573C11.2469 12.0478 11.2602 12.0407 11.2746 12.0364C11.2889 12.032 11.304 12.0306 11.3189 12.0321C11.3338 12.0336 11.3483 12.038 11.3615 12.0451C11.4668 12.1019 11.5823 12.1372 11.7014 12.149C11.8204 12.1609 11.9406 12.1489 12.055 12.1139C12.1696 12.0796 12.2762 12.0229 12.3687 11.9471C12.4613 11.8712 12.5378 11.7778 12.594 11.6722C12.6093 11.6475 12.6334 11.6294 12.6615 11.6219C12.6896 11.6143 12.7196 11.6177 12.7452 11.6314C12.7709 11.6452 12.7903 11.6682 12.7996 11.6958C12.8088 11.7234 12.8072 11.7534 12.7951 11.7799C12.7248 11.912 12.6291 12.0288 12.5134 12.1237C12.3977 12.2185 12.2643 12.2895 12.121 12.3324C12.0136 12.365 11.9021 12.3816 11.7898 12.3817Z" fill="#FFBF9C"/>
<path d="M15.2885 6.92432V10.2285H15.1281C15.016 10.2285 14.9085 10.1839 14.8292 10.1046C14.7499 10.0253 14.7054 9.91776 14.7053 9.80564V6.92432H15.2885ZM8.2832 6.92432V10.2285H8.44347C8.55564 10.2285 8.66323 10.184 8.74257 10.1047C8.8219 10.0254 8.8665 9.91782 8.86654 9.80564V6.92432H8.2832ZM13.4754 9.5677C13.4752 9.67151 13.4339 9.77101 13.3605 9.84441C13.2871 9.91781 13.1876 9.95912 13.0838 9.9593C12.98 9.95908 12.8805 9.91774 12.8072 9.84435C12.7338 9.77095 12.6925 9.67148 12.6923 9.5677C12.6925 9.46393 12.7338 9.36445 12.8072 9.29106C12.8805 9.21766 12.98 9.17633 13.0838 9.1761C13.1876 9.17628 13.2871 9.2176 13.3605 9.291C13.4339 9.3644 13.4752 9.4639 13.4754 9.5677ZM13.6922 8.90939C13.6922 8.9517 13.6583 8.98555 13.616 8.98555H12.5515C12.5092 8.98555 12.4754 8.9517 12.4754 8.90939C12.4754 8.86709 12.5092 8.83104 12.5515 8.83104H13.616C13.6583 8.83104 13.6922 8.86709 13.6922 8.90939ZM10.8592 9.5677C10.8591 9.67151 10.8177 9.77101 10.7443 9.84441C10.6709 9.91781 10.5714 9.95912 10.4676 9.9593C10.3638 9.95917 10.2643 9.91787 10.1908 9.84447C10.1174 9.77106 10.076 9.67154 10.0759 9.5677C10.076 9.4639 10.1174 9.3644 10.1908 9.291C10.2642 9.2176 10.3637 9.17628 10.4675 9.1761C10.5712 9.17633 10.6707 9.21766 10.7441 9.29106C10.8174 9.36445 10.8587 9.46393 10.8589 9.5677H10.8592ZM11.0758 8.90939C11.0758 8.9517 11.042 8.98555 10.9997 8.98555H9.9354C9.8931 8.98555 9.85925 8.9517 9.85925 8.90939C9.85925 8.86709 9.8931 8.83104 9.9354 8.83104H10.9999C11.0422 8.83104 11.076 8.86709 11.076 8.90939H11.0758Z" fill="#2F4867"/>
<path d="M11.2969 10.8889C11.3774 11.3355 12.1723 11.3355 12.253 10.8889C11.9427 10.9922 11.6072 10.9922 11.2969 10.8889Z" fill="#FFBF9C"/>
<path d="M11.9583 16.5858C11.9583 16.6755 11.8855 16.7483 11.7975 16.7483C11.7078 16.7483 11.6367 16.6755 11.6367 16.5858C11.6367 16.5432 11.6537 16.5023 11.6838 16.4721C11.714 16.442 11.7549 16.425 11.7975 16.425C11.8401 16.425 11.881 16.442 11.9112 16.4721C11.9413 16.5023 11.9583 16.5432 11.9583 16.5858ZM11.9583 18.1764C11.9583 18.2661 11.8855 18.3389 11.7975 18.3389C11.7078 18.3389 11.6367 18.2661 11.6367 18.1764C11.6367 18.1338 11.6537 18.0929 11.6838 18.0627C11.714 18.0326 11.7549 18.0156 11.7975 18.0156C11.8401 18.0156 11.881 18.0326 11.9112 18.0627C11.9413 18.0929 11.9583 18.1338 11.9583 18.1764ZM11.9583 19.7668C11.9583 19.8565 11.8855 19.9293 11.7975 19.9293C11.7078 19.9293 11.6367 19.8565 11.6367 19.7668C11.6367 19.7242 11.6537 19.6833 11.6838 19.6532C11.714 19.623 11.7549 19.6061 11.7975 19.6061C11.8401 19.6061 11.881 19.623 11.9112 19.6532C11.9413 19.6833 11.9583 19.7242 11.9583 19.7668ZM11.9583 21.3575C11.9583 21.4471 11.8855 21.5199 11.7975 21.5199C11.7078 21.5199 11.6367 21.4471 11.6367 21.3575C11.6367 21.3148 11.6537 21.2739 11.6838 21.2438C11.714 21.2136 11.7549 21.1967 11.7975 21.1967C11.8401 21.1967 11.881 21.2136 11.9112 21.2438C11.9413 21.2739 11.9583 21.3148 11.9583 21.3575Z" fill="white"/>
</g>
<defs>
<clipPath id="clip0_367_7741">
<rect width="22" height="22" fill="white" transform="translate(0.783203 0.869385)"/>
</clipPath>
</defs>
</svg>
