<svg width="31" height="29" viewBox="0 0 31 29" fill="none" xmlns="http://www.w3.org/2000/svg">
<path d="M28.6083 6.77311C27.9672 7.17791 27.2096 7.36189 26.4527 7.29663C25.857 7.23525 25.2867 7.02527 24.7948 6.68625C24.3029 6.34723 23.9054 5.89018 23.6394 5.35768C23.4229 4.93812 23.2985 4.47769 23.2747 4.00687C23.2778 3.96185 23.2651 3.91715 23.2386 3.88048C23.2121 3.8438 23.1735 3.81745 23.1296 3.80597C23.0856 3.79448 23.0389 3.79858 22.9977 3.81756C22.9564 3.83653 22.9231 3.8692 22.9035 3.90992C21.2755 6.88299 16.0657 16.5454 16.0657 16.5454C16.0657 16.5454 15.7531 17.237 15.4145 17.8381L8.70685 4.91172C8.02617 3.57901 6.85899 2.55416 5.44318 2.04614C4.02738 1.53813 2.4696 1.58521 1.08757 2.17779L0 2.63668L7.93193 18.4844C7.87042 18.4061 7.81387 18.3241 7.76261 18.2388L11.8588 26.4147C12.51 27.7074 13.4804 29 15.1149 29H15.6359C15.828 28.9991 16.0198 28.9818 16.209 28.9483C16.5679 28.9053 16.9139 28.7887 17.2249 28.6057C17.9493 28.2143 18.5066 27.5762 18.7943 26.809L28.8492 7.05749C28.869 7.01906 28.8757 6.97533 28.8684 6.9328C28.8611 6.89026 28.8401 6.85121 28.8087 6.82143C28.7772 6.79166 28.737 6.77276 28.6938 6.76755C28.6506 6.76234 28.6069 6.77109 28.5692 6.7925" fill="#5A5CE7"/>
<path d="M30.3927 2.97306C30.3927 3.56108 30.217 4.13589 29.8878 4.62481C29.5587 5.11373 29.0909 5.49479 28.5435 5.71982C27.9961 5.94484 27.3938 6.00372 26.8127 5.889C26.2316 5.77428 25.6978 5.49113 25.2789 5.07534C24.8599 4.65955 24.5746 4.1298 24.4591 3.55308C24.3435 2.97636 24.4028 2.37858 24.6295 1.83532C24.8562 1.29207 25.2402 0.827736 25.7328 0.501051C26.2254 0.174367 26.8046 0 27.3971 0C28.1916 0 28.9535 0.313233 29.5153 0.87079C30.0771 1.42835 30.3927 2.18456 30.3927 2.97306Z" fill="#5A5CE7"/>
</svg>
