<svg width="51" height="51" viewBox="0 0 51 51" fill="none" xmlns="http://www.w3.org/2000/svg">
<path d="M12.1387 22.7368H17.0497V38.6976H12.1387V22.7368ZM23.1885 22.7368H28.0995V38.6976H23.1885V22.7368ZM34.2382 22.7368H39.1492V38.6976H34.2382V22.7368Z" fill="#C0DADC"/>
<path d="M40.3774 16.5984V22.7372C40.3774 23.0628 40.2481 23.3751 40.0178 23.6053C39.7876 23.8356 39.4753 23.9649 39.1497 23.9649H12.1391C11.8135 23.9649 11.5012 23.8356 11.2709 23.6053C11.0407 23.3751 10.9113 23.0628 10.9113 22.7372V16.5984H40.3774ZM12.1391 37.4702H39.1497C39.8009 37.4702 40.4255 37.7289 40.886 38.1894C41.3465 38.6499 41.6052 39.2745 41.6052 39.9257V42.3812H9.68359V39.9257C9.68359 39.2745 9.9423 38.6499 10.4028 38.1894C10.8633 37.7289 11.4879 37.4702 12.1391 37.4702Z" fill="#86A9AF"/>
<path d="M25.1623 8.12703L8.95596 17.2124C8.76489 17.3181 8.61449 17.4845 8.52853 17.6852C8.44257 17.8859 8.42595 18.1096 8.48129 18.3208C8.53663 18.532 8.66078 18.7188 8.83412 18.8516C9.00747 18.9844 9.22011 19.0556 9.43847 19.054H41.8512C42.0696 19.0559 42.2825 18.9848 42.456 18.8522C42.6296 18.7195 42.7539 18.5327 42.8094 18.3214C42.8649 18.1101 42.8484 17.8863 42.7625 17.6855C42.6765 17.4846 42.5261 17.3182 42.3349 17.2124L26.1285 8.12703C25.9811 8.04376 25.8147 8 25.6454 8C25.4761 8 25.3097 8.04376 25.1623 8.12703Z" fill="#C0DADC"/>
<path d="M44.0604 43.6088H7.22775C6.90213 43.6088 6.58985 43.4795 6.3596 43.2492C6.12935 43.019 6 42.7067 6 42.3811C6 42.0555 6.12935 41.7432 6.3596 41.5129C6.58985 41.2827 6.90213 41.1533 7.22775 41.1533H44.0604C44.386 41.1533 44.6983 41.2827 44.9285 41.5129C45.1588 41.7432 45.2881 42.0555 45.2881 42.3811C45.2881 42.7067 45.1588 43.019 44.9285 43.2492C44.6983 43.4795 44.386 43.6088 44.0604 43.6088Z" fill="#244766"/>
</svg>
