<svg width="18" height="18" viewBox="0 0 18 18" fill="none" xmlns="http://www.w3.org/2000/svg">
<mask id="mask0_367_7732" style="mask-type:luminance" maskUnits="userSpaceOnUse" x="2" y="1" width="14" height="13">
<path fill-rule="evenodd" clip-rule="evenodd" d="M2.74414 1.07764H15.8461V13.3658H2.74414V1.07764Z" fill="white"/>
</mask>
<g mask="url(#mask0_367_7732)">
<path fill-rule="evenodd" clip-rule="evenodd" d="M9.29448 2.14005C6.81885 2.14005 5.09335 4.07946 5.09335 5.81984C5.09335 7.29246 4.68465 7.97317 4.3234 8.57384C4.03369 9.05621 3.8049 9.4373 3.8049 10.2653C3.92319 11.6013 4.80506 12.3032 9.29448 12.3032C13.7591 12.3032 14.6686 11.5701 14.7862 10.2193C14.7841 9.4373 14.5553 9.05621 14.2656 8.57384C13.9043 7.97317 13.4956 7.29246 13.4956 5.81984C13.4956 4.07946 11.7701 2.14005 9.29448 2.14005ZM9.29411 13.3658C5.98194 13.3658 2.98853 13.1321 2.74415 10.3108C2.74203 9.14343 3.09832 8.54985 3.41282 8.0271C3.73086 7.49726 4.03048 6.99789 4.03048 5.81993C4.03048 3.52989 6.14557 1.07764 9.29411 1.07764C12.4426 1.07764 14.5577 3.52989 14.5577 5.81993C14.5577 6.99789 14.8574 7.49726 15.1754 8.0271C15.4899 8.54985 15.8462 9.14343 15.8462 10.2654C15.599 13.1321 12.6063 13.3658 9.29411 13.3658Z" fill="#3D3E40"/>
</g>
<path fill-rule="evenodd" clip-rule="evenodd" d="M9.25937 16.3068H9.25795C8.46391 16.3061 7.71237 15.9562 7.14216 15.3208C6.94595 15.1034 6.96366 14.7669 7.18183 14.5714C7.39999 14.3745 7.73574 14.3922 7.93195 14.6111C8.29887 15.0198 8.76991 15.2443 9.25866 15.2443H9.25937C9.75024 15.2443 10.2234 15.0198 10.591 14.6104C10.788 14.3929 11.1237 14.3752 11.3412 14.5714C11.5593 14.7676 11.577 15.1041 11.3808 15.3215C10.8085 15.9569 10.0555 16.3068 9.25937 16.3068Z" fill="#3D3E40"/>
</svg>
