<svg width="36" height="36" viewBox="0 0 36 36" fill="none" xmlns="http://www.w3.org/2000/svg">
<path d="M26.5352 21.5193V28.7303" stroke="#0E10B8" stroke-width="2.1528" stroke-linecap="round" stroke-linejoin="round"/>
<path d="M22.9316 25.1245H30.1427" stroke="#0E10B8" stroke-width="2.1528" stroke-linecap="round" stroke-linejoin="round"/>
<path d="M18.1299 14.6074L14.5977 18.1396" stroke="white" stroke-width="2.1528" stroke-linecap="round" stroke-linejoin="round"/>
<path d="M13.6798 10.3164L15.5855 8.41069C16.1593 7.83697 16.8404 7.38187 17.59 7.07138C18.3396 6.76088 19.143 6.60107 19.9543 6.60107C20.7657 6.60107 21.5691 6.76088 22.3187 7.07138C23.0683 7.38187 23.7494 7.83697 24.3231 8.41069C24.8968 8.9844 25.3519 9.6655 25.6624 10.4151C25.9729 11.1647 26.1327 11.9681 26.1327 12.7795C26.1327 13.5908 25.9729 14.3942 25.6624 15.1438C25.3519 15.8934 24.8968 16.5745 24.3231 17.1482L22.4298 19.0416M19.0389 22.4326L17.1331 24.3383C15.9744 25.497 14.4029 26.1479 12.7643 26.1479C11.1257 26.1479 9.55423 25.497 8.39555 24.3383C7.82183 23.7646 7.36673 23.0835 7.05624 22.3339C6.74575 21.5843 6.58594 20.7809 6.58594 19.9695C6.58594 19.1582 6.74575 18.3548 7.05624 17.6052C7.36673 16.8556 7.82183 16.1745 8.39555 15.6008L10.2889 13.7073" stroke="white" stroke-width="2.1528" stroke-miterlimit="10" stroke-linecap="round"/>
</svg>
