<svg width="18" height="18" viewBox="0 0 18 18" fill="none" xmlns="http://www.w3.org/2000/svg">
<rect width="17" height="17" transform="translate(0.619141 0.369385)" fill="white"/>
<path fill-rule="evenodd" clip-rule="evenodd" d="M5.25 8.99654C5.25 8.5721 5.59428 8.22782 6.01872 8.22782H7.86411C8.06807 8.22782 8.26367 8.30885 8.40788 8.45306C8.5521 8.59728 8.63312 8.79288 8.63312 8.99683C8.63312 9.20079 8.5521 9.39639 8.40788 9.5406C8.26367 9.68482 8.06807 9.76584 7.86411 9.76584H6.01872C5.91772 9.76584 5.81771 9.74594 5.72441 9.70727C5.63111 9.6686 5.54634 9.61193 5.47495 9.54049C5.40356 9.46904 5.34695 9.38423 5.30835 9.2909C5.26975 9.19757 5.24992 9.09754 5.25 8.99654ZM5.25 3.46037C5.25 3.03593 5.59428 2.69165 6.01872 2.69165H12.9389C13.1429 2.69165 13.3385 2.77267 13.4827 2.91689C13.6269 3.06111 13.7079 3.25671 13.7079 3.46066C13.7079 3.66461 13.6269 3.86021 13.4827 4.00443C13.3385 4.14865 13.1429 4.22967 12.9389 4.22967H6.01872C5.91772 4.22967 5.81771 4.20977 5.72441 4.1711C5.63111 4.13243 5.54634 4.07576 5.47495 4.00431C5.40356 3.93287 5.34695 3.84806 5.30835 3.75472C5.26975 3.66139 5.24992 3.56137 5.25 3.46037ZM5.25 6.22846C5.25 5.80402 5.59428 5.45974 6.01872 5.45974H12.9389C13.1428 5.45974 13.3383 5.54073 13.4825 5.68489C13.6267 5.82905 13.7077 6.02458 13.7077 6.22846C13.7077 6.43234 13.6267 6.62786 13.4825 6.77203C13.3383 6.91619 13.1428 6.99718 12.9389 6.99718H6.01872C5.81484 6.99718 5.61932 6.91619 5.47515 6.77203C5.33099 6.62786 5.25 6.43234 5.25 6.22846Z" fill="#3D3E40"/>
<path fill-rule="evenodd" clip-rule="evenodd" d="M5.47511 8.45288C5.77499 8.15243 6.26229 8.15243 6.56274 8.45288L11.4559 13.346C11.6001 13.4903 11.6812 13.6859 11.6812 13.8899C11.6812 14.0938 11.6001 14.2894 11.4559 14.4337C11.3117 14.5779 11.1161 14.6589 10.9121 14.6589C10.7081 14.6589 10.5125 14.5779 10.3683 14.4337L5.47511 9.53993C5.33097 9.39577 5.25 9.20026 5.25 8.9964C5.25 8.79255 5.33097 8.59704 5.47511 8.45288Z" fill="#3D3E40"/>
<path fill-rule="evenodd" clip-rule="evenodd" d="M9.86481 6.22846C9.86481 5.1812 8.92539 4.22967 7.63477 4.22967V2.69165C9.65662 2.69165 11.4022 4.21813 11.4022 6.22846C11.4022 8.23878 9.65662 9.76584 7.63477 9.76584V8.22782C8.92539 8.22782 9.86481 7.27629 9.86481 6.22846Z" fill="#3D3E40"/>
</svg>
