<svg width="36" height="36" viewBox="0 0 36 36" fill="none" xmlns="http://www.w3.org/2000/svg">
<path fill-rule="evenodd" clip-rule="evenodd" d="M13.7344 18.915C13.7344 18.5125 14.0609 18.186 14.4634 18.186H16.2134C16.4068 18.186 16.5923 18.2629 16.729 18.3996C16.8658 18.5364 16.9426 18.7219 16.9426 18.9153C16.9426 19.1087 16.8658 19.2942 16.729 19.431C16.5923 19.5677 16.4068 19.6445 16.2134 19.6445H14.4634C14.3676 19.6445 14.2727 19.6257 14.1843 19.589C14.0958 19.5523 14.0154 19.4986 13.9477 19.4308C13.88 19.3631 13.8263 19.2827 13.7897 19.1942C13.7531 19.1057 13.7343 19.0108 13.7344 18.915ZM13.7344 13.665C13.7344 13.2625 14.0609 12.936 14.4634 12.936H21.0259C21.2193 12.936 21.4048 13.0129 21.5415 13.1496C21.6783 13.2864 21.7551 13.4719 21.7551 13.6653C21.7551 13.8587 21.6783 14.0442 21.5415 14.181C21.4048 14.3177 21.2193 14.3946 21.0259 14.3946H14.4634C14.3676 14.3946 14.2727 14.3757 14.1843 14.339C14.0958 14.3023 14.0154 14.2486 13.9477 14.1808C13.88 14.1131 13.8263 14.0327 13.7897 13.9442C13.7531 13.8557 13.7343 13.7608 13.7344 13.665ZM13.7344 16.29C13.7344 15.8875 14.0609 15.561 14.4634 15.561H21.0259C21.2192 15.561 21.4046 15.6378 21.5413 15.7746C21.678 15.9113 21.7548 16.0967 21.7548 16.29C21.7548 16.4834 21.678 16.6688 21.5413 16.8055C21.4046 16.9422 21.2192 17.019 21.0259 17.019H14.4634C14.27 17.019 14.0846 16.9422 13.9479 16.8055C13.8112 16.6688 13.7344 16.4834 13.7344 16.29Z" fill="#0E10B8" stroke="#0E10B8" stroke-width="0.280469"/>
<path fill-rule="evenodd" clip-rule="evenodd" d="M13.9478 18.3997C14.2322 18.1148 14.6943 18.1148 14.9793 18.3997L19.6195 23.04C19.7563 23.1767 19.8331 23.3622 19.8331 23.5557C19.8331 23.7491 19.7563 23.9346 19.6195 24.0714C19.4827 24.2081 19.2972 24.285 19.1038 24.285C18.9104 24.285 18.7249 24.2081 18.5881 24.0714L13.9478 19.4306C13.8112 19.2939 13.7344 19.1085 13.7344 18.9152C13.7344 18.7218 13.8112 18.5364 13.9478 18.3997Z" fill="#0E10B8" stroke="#0E10B8" stroke-width="0.280469"/>
<path fill-rule="evenodd" clip-rule="evenodd" d="M18.107 16.29C18.107 15.2969 17.2161 14.3946 15.9922 14.3946V12.936C17.9095 12.936 19.5649 14.3836 19.5649 16.29C19.5649 18.1964 17.9095 19.6445 15.9922 19.6445V18.186C17.2161 18.186 18.107 17.2837 18.107 16.29Z" fill="#0E10B8" stroke="#0E10B8" stroke-width="0.280469"/>
<path fill-rule="evenodd" clip-rule="evenodd" d="M8.26516 6.37355C7.685 6.37355 7.1286 6.60402 6.71836 7.01426C6.30812 7.42449 6.07766 7.98089 6.07766 8.56105V27.519C6.07766 28.0992 6.30812 28.6556 6.71836 29.0658C7.1286 29.4761 7.685 29.7065 8.26516 29.7065H27.2231C27.8033 29.7065 28.3597 29.4761 28.7699 29.0658C29.1802 28.6556 29.4106 28.0992 29.4106 27.519V15.1236C29.4106 14.9301 29.4875 14.7447 29.6242 14.6079C29.761 14.4711 29.9465 14.3943 30.1399 14.3943C30.3333 14.3943 30.5188 14.4711 30.6555 14.6079C30.7923 14.7447 30.8691 14.9301 30.8691 15.1236V27.519C30.8691 27.9978 30.7748 28.4719 30.5916 28.9143C30.4084 29.3566 30.1398 29.7586 29.8012 30.0971C29.4627 30.4357 29.0608 30.7043 28.6184 30.8875C28.176 31.0707 27.7019 31.165 27.2231 31.165H8.26516C7.29817 31.165 6.37079 30.7809 5.68703 30.0971C5.00327 29.4134 4.61914 28.486 4.61914 27.519V8.56105C4.61914 7.59407 5.00327 6.66669 5.68703 5.98293C6.37079 5.29917 7.29817 4.91504 8.26516 4.91504H20.6606C20.854 4.91504 21.0395 4.99187 21.1763 5.12863C21.3131 5.2654 21.3899 5.45089 21.3899 5.6443C21.3899 5.83771 21.3131 6.0232 21.1763 6.15996C21.0395 6.29672 20.854 6.37355 20.6606 6.37355H8.26516Z" fill="white" stroke="white" stroke-width="0.841406"/>
<path fill-rule="evenodd" clip-rule="evenodd" d="M28.3517 6.37014L24.4667 10.2393C24.3297 10.3757 24.2524 10.561 24.252 10.7543C24.2517 10.8501 24.2704 10.9449 24.3068 11.0335C24.3432 11.122 24.3967 11.2025 24.4643 11.2704C24.5318 11.3383 24.6121 11.3922 24.7004 11.429C24.7888 11.4659 24.8836 11.485 24.9793 11.4852C25.1727 11.4857 25.3583 11.4093 25.4954 11.2729L29.3667 7.4174V10.2776C29.3667 10.471 29.4436 10.6565 29.5803 10.7932C29.7171 10.93 29.9026 11.0068 30.096 11.0068C30.2894 11.0068 30.4749 10.93 30.6117 10.7932C30.7484 10.6565 30.8253 10.471 30.8253 10.2776V5.77568C30.8455 5.65929 30.837 5.53973 30.8007 5.4273C30.7644 5.31488 30.7013 5.21298 30.6169 5.13037C30.549 5.06098 30.4679 5.00587 30.3784 4.9683C30.2889 4.93073 30.1928 4.91146 30.0957 4.91162H25.4599C25.2665 4.91162 25.081 4.98845 24.9442 5.12522C24.8074 5.26198 24.7306 5.44747 24.7306 5.64088C24.7306 5.83429 24.8074 6.01978 24.9442 6.15654C25.081 6.29331 25.2665 6.37014 25.4599 6.37014H28.3517Z" fill="white" stroke="white" stroke-width="0.560938"/>
</svg>
