<svg width="28" height="25" viewBox="0 0 28 25" fill="none" xmlns="http://www.w3.org/2000/svg">
<g clip-path="url(#clip0_367_8317)">
<path d="M17.998 21.9998C12.4838 21.9998 7.99805 17.514 7.99805 11.9998C7.99805 6.48556 12.4838 1.99976 17.998 1.99976C23.5122 1.99976 27.998 6.48556 27.998 11.9998C27.998 17.514 23.5122 21.9998 17.998 21.9998ZM17.998 3.99976C13.5869 3.99976 9.99805 7.58866 9.99805 11.9998C9.99805 16.4109 13.5869 19.9998 17.998 19.9998C22.4091 19.9998 25.998 16.4109 25.998 11.9998C25.998 7.58866 22.4091 3.99976 17.998 3.99976Z" fill="#0E10B8"/>
<path d="M11.1981 18.9998H2.998C2.44581 18.9998 1.99801 18.552 1.99801 17.9998C1.99801 17.4476 2.44581 16.9998 2.998 16.9998H11.1981C11.7503 16.9998 12.198 17.4476 12.198 17.9998C12.198 18.552 11.7503 18.9998 11.1981 18.9998ZM9.2181 10.9998H0.99803C0.44584 10.9998 -0.00195312 10.552 -0.00195312 9.99976C-0.00195312 9.44756 0.44584 8.99976 0.99803 8.99976H9.2181C9.77029 8.99976 10.2181 9.44756 10.2181 9.99976C10.2181 10.552 9.77039 10.9998 9.2181 10.9998ZM9.2181 14.9998H4.99796C4.44577 14.9998 3.99798 14.552 3.99798 13.9998C3.99798 13.4476 4.44577 12.9998 4.99796 12.9998H9.2181C9.77029 12.9998 10.2181 13.4476 10.2181 13.9998C10.2181 14.552 9.77039 14.9998 9.2181 14.9998ZM11.1981 6.99976H6.99793C6.44574 6.99976 5.99795 6.55196 5.99795 5.99976C5.99795 5.44756 6.44574 4.99976 6.99793 4.99976H11.1981C11.7503 4.99976 12.198 5.44756 12.198 5.99976C12.198 6.55196 11.7503 6.99976 11.1981 6.99976ZM2.998 6.99976H0.99803C0.44584 6.99976 -0.00195312 6.55196 -0.00195312 5.99976C-0.00195312 5.44756 0.44584 4.99976 0.99803 4.99976H2.998C3.55019 4.99976 3.99798 5.44756 3.99798 5.99976C3.99798 6.55196 3.55019 6.99976 2.998 6.99976Z" fill="#0E10B8"/>
<path fill-rule="evenodd" clip-rule="evenodd" d="M14.998 12.2271C14.998 11.8752 15.2835 11.5898 15.6354 11.5898H17.1654C17.3345 11.5898 17.4967 11.657 17.6162 11.7765C17.7358 11.8961 17.803 12.0583 17.803 12.2274C17.803 12.3965 17.7358 12.5586 17.6162 12.6782C17.4967 12.7978 17.3345 12.865 17.1654 12.865H15.6354C15.5517 12.865 15.4687 12.8485 15.3914 12.8164C15.314 12.7843 15.2437 12.7373 15.1846 12.6781C15.1254 12.6189 15.0784 12.5486 15.0464 12.4712C15.0144 12.3938 14.998 12.3109 14.998 12.2271ZM14.998 7.6371C14.998 7.2852 15.2835 6.99976 15.6354 6.99976H21.3729C21.542 6.99976 21.7042 7.06693 21.8238 7.1865C21.9433 7.30607 22.0105 7.46824 22.0105 7.63734C22.0105 7.80644 21.9433 7.96861 21.8238 8.08818C21.7042 8.20775 21.542 8.27492 21.3729 8.27492H15.6354C15.5517 8.27492 15.4687 8.25842 15.3914 8.22636C15.314 8.1943 15.2437 8.14732 15.1846 8.08808C15.1254 8.02885 15.0784 7.95853 15.0464 7.88115C15.0144 7.80377 14.998 7.72084 14.998 7.6371ZM14.998 9.93212C14.998 9.58021 15.2835 9.29477 15.6354 9.29477H21.3729C21.542 9.29477 21.7041 9.36192 21.8236 9.48145C21.9431 9.60097 22.0103 9.76308 22.0103 9.93212C22.0103 10.1012 21.9431 10.2633 21.8236 10.3828C21.7041 10.5023 21.542 10.5695 21.3729 10.5695H15.6354C15.4664 10.5695 15.3042 10.5023 15.1847 10.3828C15.0652 10.2633 14.998 10.1012 14.998 9.93212Z" fill="white"/>
<path fill-rule="evenodd" clip-rule="evenodd" d="M15.1847 11.7774C15.4333 11.5283 15.8373 11.5283 16.0864 11.7774L20.1434 15.8343C20.2629 15.9539 20.3301 16.1161 20.3301 16.2852C20.3301 16.4543 20.2629 16.6165 20.1434 16.7361C20.0238 16.8557 19.8616 16.9228 19.6925 16.9228C19.5234 16.9228 19.3612 16.8557 19.2416 16.7361L15.1847 12.6787C15.0652 12.5592 14.998 12.3971 14.998 12.228C14.998 12.059 15.0652 11.8969 15.1847 11.7774Z" fill="white"/>
<path fill-rule="evenodd" clip-rule="evenodd" d="M18.8216 9.93236C18.8216 9.06408 18.0427 8.27517 16.9727 8.27517V7C18.649 7 20.0963 8.26561 20.0963 9.93236C20.0963 11.5991 18.649 12.8652 16.9727 12.8652V11.59C18.0427 11.59 18.8216 10.8011 18.8216 9.93236Z" fill="white"/>
</g>
<defs>
<clipPath id="clip0_367_8317">
<rect width="28" height="25" fill="white" transform="translate(-0.00195312 -0.000244141)"/>
</clipPath>
</defs>
</svg>
