<svg width="25" height="25" viewBox="0 0 25 25" fill="none" xmlns="http://www.w3.org/2000/svg">
<path fill-rule="evenodd" clip-rule="evenodd" d="M9.63574 13.1274C9.63574 12.8399 9.86895 12.6067 10.1564 12.6067H11.4064C11.5446 12.6067 11.6771 12.6616 11.7748 12.7593C11.8725 12.8569 11.9273 12.9894 11.9273 13.1276C11.9273 13.2657 11.8725 13.3982 11.7748 13.4959C11.6771 13.5936 11.5446 13.6485 11.4064 13.6485H10.1564C10.088 13.6485 10.0203 13.635 9.95709 13.6088C9.89389 13.5826 9.83647 13.5442 9.78811 13.4958C9.73976 13.4474 9.70141 13.39 9.67527 13.3268C9.64912 13.2636 9.63569 13.1958 9.63574 13.1274ZM9.63574 9.37739C9.63574 9.08989 9.86895 8.85669 10.1564 8.85669H14.8439C14.9821 8.85669 15.1146 8.91157 15.2123 9.00926C15.31 9.10694 15.3648 9.23944 15.3648 9.37759C15.3648 9.51574 15.31 9.64823 15.2123 9.74592C15.1146 9.84361 14.9821 9.89849 14.8439 9.89849H10.1564C10.088 9.89849 10.0203 9.885 9.95709 9.85881C9.89389 9.83262 9.83647 9.79423 9.78811 9.74584C9.73976 9.69744 9.70141 9.64 9.67527 9.57678C9.64912 9.51356 9.63569 9.44581 9.63574 9.37739ZM9.63574 11.2524C9.63574 10.9649 9.86895 10.7317 10.1564 10.7317H14.8439C14.982 10.7317 15.1145 10.7865 15.2121 10.8842C15.3098 10.9819 15.3646 11.1143 15.3646 11.2524C15.3646 11.3905 15.3098 11.5229 15.2121 11.6206C15.1145 11.7182 14.982 11.7731 14.8439 11.7731H10.1564C10.0183 11.7731 9.8859 11.7182 9.78825 11.6206C9.6906 11.5229 9.63574 11.3905 9.63574 11.2524Z" fill="#68606E" stroke="#68606E" stroke-width="0.2"/>
<path fill-rule="evenodd" clip-rule="evenodd" d="M9.78822 12.7593C9.99135 12.5558 10.3214 12.5558 10.5249 12.7593L13.8394 16.0738C13.9371 16.1715 13.992 16.304 13.992 16.4421C13.992 16.5803 13.9371 16.7128 13.8394 16.8105C13.7417 16.9082 13.6092 16.9631 13.471 16.9631C13.3329 16.9631 13.2004 16.9082 13.1027 16.8105L9.78822 13.4957C9.69059 13.398 9.63574 13.2656 9.63574 13.1275C9.63574 12.9894 9.69059 12.857 9.78822 12.7593Z" fill="#68606E" stroke="#68606E" stroke-width="0.2"/>
<path fill-rule="evenodd" clip-rule="evenodd" d="M12.7605 11.2524C12.7605 10.543 12.1242 9.89849 11.25 9.89849V8.85669C12.6195 8.85669 13.802 9.89067 13.802 11.2524C13.802 12.6141 12.6195 13.6485 11.25 13.6485V12.6067C12.1242 12.6067 12.7605 11.9622 12.7605 11.2524Z" fill="#68606E" stroke="#68606E" stroke-width="0.2"/>
<path fill-rule="evenodd" clip-rule="evenodd" d="M5.7293 4.16924C5.3149 4.16924 4.91747 4.33386 4.62444 4.62688C4.33142 4.91991 4.1668 5.31734 4.1668 5.73174V19.2731C4.1668 19.6875 4.33142 20.085 4.62444 20.378C4.91747 20.671 5.3149 20.8356 5.7293 20.8356H19.2707C19.6851 20.8356 20.0825 20.671 20.3756 20.378C20.6686 20.085 20.8332 19.6875 20.8332 19.2731V10.4192C20.8332 10.2811 20.8881 10.1486 20.9858 10.0509C21.0835 9.95322 21.216 9.89834 21.3541 9.89834C21.4923 9.89834 21.6247 9.95322 21.7224 10.0509C21.8201 10.1486 21.875 10.2811 21.875 10.4192V19.2731C21.875 19.6151 21.8076 19.9538 21.6768 20.2698C21.5459 20.5857 21.354 20.8728 21.1122 21.1147C20.8704 21.3565 20.5833 21.5483 20.2673 21.6792C19.9514 21.8101 19.6127 21.8774 19.2707 21.8774H5.7293C5.03859 21.8774 4.37618 21.6031 3.88778 21.1147C3.39938 20.6263 3.125 19.9638 3.125 19.2731V5.73174C3.125 5.04104 3.39938 4.37862 3.88778 3.89022C4.37618 3.40182 5.03859 3.12744 5.7293 3.12744H14.5832C14.7214 3.12744 14.8538 3.18232 14.9515 3.28001C15.0492 3.3777 15.1041 3.51019 15.1041 3.64834C15.1041 3.78649 15.0492 3.91898 14.9515 4.01667C14.8538 4.11436 14.7214 4.16924 14.5832 4.16924H5.7293Z" fill="#6769FE" stroke="#6769FE" stroke-width="0.6"/>
<path fill-rule="evenodd" clip-rule="evenodd" d="M20.0759 4.1668L17.3009 6.93047C17.203 7.02791 17.1478 7.16024 17.1475 7.29837C17.1473 7.36676 17.1606 7.43451 17.1866 7.49776C17.2127 7.56101 17.2509 7.61852 17.2991 7.66699C17.3474 7.71547 17.4047 7.75397 17.4678 7.78029C17.5309 7.80662 17.5986 7.82025 17.667 7.82041C17.8051 7.82074 17.9377 7.76619 18.0356 7.66875L20.8009 4.91484V6.95781C20.8009 7.09596 20.8558 7.22846 20.9534 7.32614C21.0511 7.42383 21.1836 7.47871 21.3218 7.47871C21.4599 7.47871 21.5924 7.42383 21.6901 7.32614C21.7878 7.22846 21.8427 7.09596 21.8427 6.95781V3.74219C21.8571 3.65905 21.8511 3.57365 21.8252 3.49335C21.7992 3.41304 21.7542 3.34025 21.6938 3.28125C21.6454 3.23168 21.5874 3.19232 21.5235 3.16549C21.4596 3.13865 21.3909 3.12489 21.3216 3.125H18.0103C17.8721 3.125 17.7396 3.17988 17.6419 3.27757C17.5442 3.37526 17.4894 3.50775 17.4894 3.6459C17.4894 3.78405 17.5442 3.91654 17.6419 4.01423C17.7396 4.11192 17.8721 4.1668 18.0103 4.1668H20.0759Z" fill="#6769FE" stroke="#6769FE" stroke-width="0.4"/>
</svg>
