<svg width="25" height="25" viewBox="0 0 25 25" fill="none" xmlns="http://www.w3.org/2000/svg">
<path fill-rule="evenodd" clip-rule="evenodd" d="M14.2461 4.49612C13.8008 2.66796 11.1992 2.66796 10.7539 4.49612C10.6874 4.77083 10.557 5.02596 10.3732 5.24075C10.1895 5.45554 9.95769 5.62392 9.69661 5.73219C9.43552 5.84046 9.15256 5.88556 8.87075 5.86382C8.58894 5.84208 8.31625 5.75411 8.07486 5.60707C6.467 4.62737 4.6271 6.46724 5.60682 8.07508C6.23965 9.11337 5.6783 10.4681 4.49702 10.7552C2.66766 11.1993 2.66766 13.8021 4.49702 14.2451C4.7718 14.3117 5.02698 14.4422 5.24178 14.626C5.45657 14.8099 5.62491 15.0419 5.73308 15.3031C5.84125 15.5643 5.88619 15.8474 5.86425 16.1293C5.84231 16.4112 5.7541 16.6839 5.60682 16.9252C4.6271 18.5331 6.467 20.3729 8.07486 19.3932C8.3162 19.2459 8.58892 19.1577 8.87081 19.1358C9.15269 19.1139 9.43577 19.1588 9.697 19.267C9.95822 19.3751 10.1902 19.5435 10.3741 19.7583C10.5579 19.973 10.6885 20.2282 10.755 20.503C11.1992 22.3323 13.802 22.3323 14.245 20.503C14.3118 20.2284 14.4424 19.9734 14.6263 19.7587C14.8102 19.5441 15.0422 19.3758 15.3033 19.2677C15.5645 19.1596 15.8474 19.1146 16.1292 19.1364C16.4111 19.1582 16.6837 19.2462 16.9251 19.3932C18.533 20.3729 20.3729 18.5331 19.3932 16.9252C19.2462 16.6838 19.1582 16.4111 19.1364 16.1293C19.1145 15.8475 19.1595 15.5646 19.2677 15.3034C19.3758 15.0423 19.544 14.8103 19.7587 14.6264C19.9733 14.4425 20.2283 14.3119 20.503 14.2451C22.3323 13.8009 22.3323 11.1982 20.503 10.7552C20.2282 10.6886 19.973 10.5581 19.7582 10.3742C19.5434 10.1904 19.3751 9.95841 19.2669 9.69719C19.1588 9.43596 19.1138 9.15289 19.1358 8.87101C19.1577 8.58913 19.2459 8.31642 19.3932 8.07508C20.3729 6.46724 18.533 4.62737 16.9251 5.60707C16.6838 5.75435 16.4111 5.84256 16.1292 5.8645C15.8473 5.88644 15.5642 5.8415 15.303 5.73333C15.0418 5.62516 14.8098 5.45683 14.6259 5.24204C14.4421 5.02725 14.3115 4.77207 14.245 4.49729L14.2461 4.49612Z" stroke="#6769FE" stroke-width="1.8"/>
<path d="M14.5833 12.5C14.5833 13.6506 13.6506 14.5833 12.5 14.5833C11.3494 14.5833 10.4167 13.6506 10.4167 12.5C10.4167 11.3494 11.3494 10.4167 12.5 10.4167C13.6506 10.4167 14.5833 11.3494 14.5833 12.5Z" stroke="#6769FE" stroke-width="1.8"/>
</svg>
