<svg width="25" height="25" viewBox="0 0 25 25" fill="none" xmlns="http://www.w3.org/2000/svg">
<g clip-path="url(#clip0_367_8276)">
<path fill-rule="evenodd" clip-rule="evenodd" d="M22.9712 7.39595L22.2265 6.10357C21.5964 5.01002 20.2001 4.63277 19.1051 5.26023C18.5838 5.5673 17.9618 5.65442 17.3762 5.50238C16.7907 5.35034 16.2897 4.97163 15.9836 4.44976C15.7868 4.11805 15.681 3.74023 15.677 3.35452C15.6947 2.73612 15.4614 2.13687 15.0302 1.69327C14.599 1.24967 14.0066 0.999501 13.3879 0.999756H11.8874C11.2813 0.999756 10.7002 1.24126 10.2727 1.67086C9.84515 2.10046 9.60643 2.68272 9.60934 3.2888C9.59138 4.54016 8.57178 5.54512 7.32029 5.54499C6.93458 5.54099 6.55677 5.4352 6.22506 5.23833C5.13001 4.61086 3.7337 4.98811 3.10363 6.08166L2.3041 7.39595C1.67479 8.48813 2.04691 9.88356 3.13648 10.5174C3.84472 10.9263 4.28102 11.682 4.28102 12.4998C4.28102 13.3176 3.84472 14.0732 3.13648 14.4821C2.04829 15.1117 1.67577 16.5037 2.3041 17.5926L3.05982 18.8959C3.35503 19.4286 3.85035 19.8217 4.43617 19.9882C5.02198 20.1547 5.65 20.0809 6.18125 19.7831C6.70349 19.4784 7.32582 19.3949 7.90992 19.5512C8.49402 19.7075 8.99147 20.0906 9.29172 20.6155C9.48859 20.9472 9.59438 21.325 9.59839 21.7107C9.59839 22.9749 10.6232 23.9998 11.8874 23.9998H13.3879C14.6479 23.9998 15.6709 22.9816 15.677 21.7217C15.674 21.1137 15.9143 20.5297 16.3442 20.0998C16.7741 19.6699 17.358 19.4297 17.966 19.4326C18.3508 19.4429 18.7271 19.5483 19.0612 19.7393C20.1534 20.3686 21.5489 19.9965 22.1827 18.9069L22.9712 17.5926C23.2765 17.0687 23.3603 16.4447 23.204 15.8588C23.0478 15.273 22.6644 14.7736 22.1389 14.4712C21.6133 14.1688 21.2299 13.6694 21.0737 13.0835C20.9175 12.4977 21.0013 11.8737 21.3065 11.3498C21.505 11.0032 21.7923 10.7159 22.1389 10.5174C23.2219 9.8839 23.5932 8.49663 22.9712 7.4069V7.39595Z" stroke="#0E10B8" stroke-width="1.5625" stroke-linecap="round" stroke-linejoin="round"/>
<path fill-rule="evenodd" clip-rule="evenodd" d="M8.99805 13.2687C8.99805 12.914 9.28576 12.6263 9.64046 12.6263H11.1826C11.3531 12.6263 11.5165 12.694 11.637 12.8145C11.7576 12.935 11.8253 13.0985 11.8253 13.2689C11.8253 13.4394 11.7576 13.6028 11.637 13.7233C11.5165 13.8439 11.3531 13.9116 11.1826 13.9116H9.64046C9.55605 13.9116 9.47248 13.8949 9.39451 13.8626C9.31653 13.8303 9.24569 13.7829 9.18603 13.7232C9.12637 13.6635 9.07906 13.5927 9.04681 13.5147C9.01455 13.4367 8.99798 13.3531 8.99805 13.2687ZM8.99805 8.64217C8.99805 8.28747 9.28576 7.99976 9.64046 7.99976H15.4236C15.594 7.99976 15.7575 8.06746 15.878 8.18798C15.9985 8.3085 16.0662 8.47196 16.0662 8.64241C16.0662 8.81285 15.9985 8.97631 15.878 9.09683C15.7575 9.21735 15.594 9.28506 15.4236 9.28506H9.64046C9.55605 9.28506 9.47248 9.26842 9.39451 9.23611C9.31653 9.2038 9.24569 9.15643 9.18603 9.09673C9.12637 9.03703 9.07906 8.96615 9.04681 8.88815C9.01455 8.81016 8.99798 8.72657 8.99805 8.64217ZM8.99805 10.9554C8.99805 10.6007 9.28576 10.313 9.64046 10.313H15.4236C15.594 10.313 15.7574 10.3807 15.8778 10.5012C15.9983 10.6216 16.066 10.785 16.066 10.9554C16.066 11.1258 15.9983 11.2892 15.8778 11.4097C15.7574 11.5301 15.594 11.5978 15.4236 11.5978H9.64046C9.47008 11.5978 9.30668 11.5301 9.1862 11.4097C9.06573 11.2892 8.99805 11.1258 8.99805 10.9554Z" fill="white"/>
<path fill-rule="evenodd" clip-rule="evenodd" d="M9.18617 12.8136C9.43677 12.5625 9.844 12.5625 10.0951 12.8136L14.1842 16.9027C14.3048 17.0232 14.3725 17.1867 14.3725 17.3572C14.3725 17.5276 14.3048 17.6911 14.1842 17.8116C14.0637 17.9322 13.9002 17.9999 13.7298 17.9999C13.5593 17.9999 13.3959 17.9322 13.2753 17.8116L9.18617 13.722C9.06571 13.6015 8.99805 13.4381 8.99805 13.2678C8.99805 13.0974 9.06571 12.934 9.18617 12.8136Z" fill="white"/>
<path fill-rule="evenodd" clip-rule="evenodd" d="M12.8538 10.9554C12.8538 10.0802 12.0688 9.28506 10.9902 9.28506V7.99976C12.6799 7.99976 14.1387 9.27542 14.1387 10.9554C14.1387 12.6354 12.6799 13.9116 10.9902 13.9116V12.6263C12.0688 12.6263 12.8538 11.8311 12.8538 10.9554Z" fill="white"/>
</g>
<defs>
<clipPath id="clip0_367_8276">
<rect width="25" height="25" fill="white" transform="translate(-0.00195312 -0.000244141)"/>
</clipPath>
</defs>
</svg>
