<svg width="25" height="25" viewBox="0 0 25 25" fill="none" xmlns="http://www.w3.org/2000/svg">
<g clip-path="url(#clip0_369_16526)">
<path d="M15.4687 3.125H8.39844C5.23437 3.125 2.61719 5.70313 2.61719 8.90625V18.3984L1.60156 17.3828C1.40625 17.1875 1.17187 17.1094 0.9375 17.1094C0.703125 17.1094 0.46875 17.1875 0.273437 17.3828C0.078125 17.5781 0 17.8125 0 18.0469C0 18.2813 0.117187 18.5156 0.273437 18.7109L2.5 20.9375C2.77344 21.2109 3.16406 21.3672 3.55469 21.3672C3.94531 21.3672 4.33594 21.2109 4.60937 20.9375L6.83594 18.7109C7.03125 18.5156 7.10937 18.2813 7.10937 18.0469C7.10937 17.8125 6.99219 17.5781 6.83594 17.3828C6.64062 17.1875 6.40625 17.1094 6.17187 17.1094C5.9375 17.1094 5.70312 17.2266 5.50781 17.3828L4.49219 18.3984V8.90625C4.49219 6.75781 6.25 5 8.39844 5H15.5078C16.0156 5 16.4453 4.57031 16.4453 4.0625C16.4453 3.55469 16.0156 3.125 15.4687 3.125ZM21.4453 7.53906L22.4609 8.55469C22.8125 8.90625 23.4375 8.90625 23.7891 8.55469C23.9844 8.35938 24.0625 8.125 24.0625 7.89063C24.0625 7.65625 23.9453 7.42188 23.7891 7.22656L21.5625 5C21.2891 4.72656 20.8984 4.57031 20.5078 4.57031C20.1172 4.57031 19.7266 4.72656 19.4531 5L17.2266 7.22656C17.0312 7.42188 16.9531 7.65625 16.9531 7.89063C16.9531 8.125 17.0703 8.35938 17.2266 8.55469C17.4219 8.75 17.6562 8.82812 17.8906 8.82812C18.125 8.82812 18.3594 8.71094 18.5547 8.55469L19.5703 7.53906V17.0313C19.5703 19.1797 17.8125 20.9375 15.6641 20.9375H8.59375C8.08594 20.9375 7.65625 21.3672 7.65625 21.875C7.65625 22.3828 8.08594 22.8125 8.59375 22.8125H15.7031C18.8672 22.8125 21.4844 20.2344 21.4844 17.0313V7.53906H21.4453Z" fill="#6769FE" stroke="#F8F9FE" stroke-width="0.2"/>
<path fill-rule="evenodd" clip-rule="evenodd" d="M9.375 13.6457C9.375 13.3582 9.6082 13.125 9.8957 13.125H11.1457C11.2839 13.125 11.4163 13.1799 11.514 13.2776C11.6117 13.3753 11.6666 13.5077 11.6666 13.6459C11.6666 13.784 11.6117 13.9165 11.514 14.0142C11.4163 14.1119 11.2839 14.1668 11.1457 14.1668H9.8957C9.82729 14.1668 9.75955 14.1533 9.69635 14.1271C9.63315 14.1009 9.57573 14.0625 9.52737 14.0141C9.47902 13.9658 9.44067 13.9083 9.41452 13.8451C9.38838 13.7819 9.37495 13.7141 9.375 13.6457ZM9.375 9.8957C9.375 9.6082 9.6082 9.375 9.8957 9.375H14.5832C14.7214 9.375 14.8538 9.42988 14.9515 9.52757C15.0492 9.62526 15.1041 9.75775 15.1041 9.8959C15.1041 10.034 15.0492 10.1665 14.9515 10.2642C14.8538 10.3619 14.7214 10.4168 14.5832 10.4168H9.8957C9.82729 10.4168 9.75955 10.4033 9.69635 10.3771C9.63315 10.3509 9.57573 10.3125 9.52737 10.2641C9.47902 10.2158 9.44067 10.1583 9.41452 10.0951C9.38838 10.0319 9.37495 9.96412 9.375 9.8957ZM9.375 11.7707C9.375 11.4832 9.6082 11.25 9.8957 11.25H14.5832C14.7213 11.25 14.8537 11.3049 14.9514 11.4025C15.049 11.5002 15.1039 11.6326 15.1039 11.7707C15.1039 11.9088 15.049 12.0412 14.9514 12.1389C14.8537 12.2365 14.7213 12.2914 14.5832 12.2914H9.8957C9.7576 12.2914 9.62516 12.2365 9.52751 12.1389C9.42986 12.0412 9.375 11.9088 9.375 11.7707Z" fill="#68606E" stroke="#68606E" stroke-width="0.2"/>
<path fill-rule="evenodd" clip-rule="evenodd" d="M9.52748 13.2776C9.73061 13.0741 10.0607 13.0741 10.2642 13.2776L13.5787 16.5921C13.6763 16.6898 13.7312 16.8223 13.7312 16.9604C13.7312 17.0986 13.6763 17.2311 13.5787 17.3288C13.481 17.4265 13.3485 17.4814 13.2103 17.4814C13.0721 17.4814 12.9396 17.4265 12.8419 17.3288L9.52748 14.014C9.42985 13.9163 9.375 13.7839 9.375 13.6458C9.375 13.5077 9.42985 13.3753 9.52748 13.2776Z" fill="#68606E" stroke="#68606E" stroke-width="0.2"/>
<path fill-rule="evenodd" clip-rule="evenodd" d="M12.4998 11.7707C12.4998 11.0613 11.8635 10.4168 10.9893 10.4168V9.375C12.3588 9.375 13.5412 10.409 13.5412 11.7707C13.5412 13.1324 12.3588 14.1668 10.9893 14.1668V13.125C11.8635 13.125 12.4998 12.4805 12.4998 11.7707Z" fill="#68606E" stroke="#68606E" stroke-width="0.2"/>
</g>
<defs>
<clipPath id="clip0_369_16526">
<rect width="25" height="25" fill="white"/>
</clipPath>
</defs>
</svg>
