<svg width="170" height="172" viewBox="0 0 170 172" fill="none" xmlns="http://www.w3.org/2000/svg">
<path fill-rule="evenodd" clip-rule="evenodd" d="M75.0405 17.023C78.1503 15.5282 81.5532 14.7524 84.9997 14.7524C88.4463 14.7524 91.8491 15.5282 94.9589 17.023C97.7001 18.3411 100.201 20.4929 103.678 23.4711L104.231 23.9414C105.917 25.3877 106.448 25.8295 106.986 26.1929C108.353 27.1191 109.891 27.7532 111.498 28.0739C112.136 28.2021 112.823 28.2662 115.033 28.4372L115.748 28.4942C120.296 28.8576 123.583 29.1212 126.444 30.133C129.695 31.2917 132.648 33.166 135.086 35.619C137.525 38.072 139.388 41.0419 140.54 44.3117C141.546 47.1902 141.801 50.4962 142.169 55.0705L142.226 55.7901C142.396 58.0131 142.46 58.7114 142.587 59.3455C142.906 60.97 143.543 62.5161 144.457 63.8912C144.818 64.4256 145.258 64.96 146.696 66.6557L147.163 67.2115C150.131 70.7027 152.263 73.225 153.573 75.9752C156.584 82.3165 156.584 89.6837 153.573 96.0179C152.27 98.7752 150.131 101.29 147.163 104.789L146.696 105.344C145.902 106.228 145.154 107.153 144.457 108.116C143.536 109.491 142.906 111.037 142.587 112.655C142.46 113.296 142.403 113.987 142.226 116.21L142.162 116.93C141.808 121.504 141.546 124.81 140.533 127.688C139.386 130.96 137.526 133.932 135.088 136.385C132.65 138.839 129.696 140.712 126.444 141.867C123.583 142.879 120.296 143.135 115.748 143.506L115.033 143.563C113.849 143.622 112.669 143.743 111.498 143.926C109.886 144.247 108.352 144.886 106.986 145.807C106.027 146.509 105.105 147.261 104.224 148.059L103.678 148.529C100.208 151.514 97.7001 153.659 94.966 154.977C91.8553 156.473 88.4511 157.249 85.0032 157.249C81.5554 157.249 78.1512 156.473 75.0405 154.977C72.2993 153.666 69.7989 151.514 66.321 148.529C66.1369 148.372 65.9527 148.216 65.7685 148.059C64.8921 147.261 63.9747 146.509 63.0201 145.807C61.6532 144.884 60.1168 144.245 58.501 143.926C57.3299 143.743 56.1501 143.622 54.9664 143.563L54.251 143.499C49.7035 143.143 46.4168 142.879 43.5551 141.86C40.3029 140.706 37.3488 138.834 34.9096 136.382C32.4704 133.93 30.6081 130.959 29.4593 127.688C28.4535 124.81 28.1914 121.504 27.8301 116.93L27.7735 116.21C27.7152 115.019 27.5947 113.833 27.4122 112.655C27.0932 111.032 26.4576 109.49 25.5422 108.116C24.8454 107.151 24.0983 106.223 23.3039 105.337L22.8364 104.789C19.8755 101.297 17.7364 98.7752 16.426 96.025C14.9389 92.896 14.167 89.4718 14.167 86.0037C14.167 82.5355 14.9389 79.1114 16.426 75.9824C17.7364 73.225 19.8755 70.7099 22.8364 67.2115L23.3039 66.6557C24.0977 65.7744 24.8448 64.8516 25.5422 63.8912C26.463 62.5161 27.0935 60.97 27.4122 59.3455C27.5397 58.7042 27.6035 58.0131 27.7735 55.7901L27.8301 55.0705C28.1914 50.4962 28.4535 47.1902 29.4593 44.3117C30.6072 41.0396 32.4691 38.0677 34.9083 35.6141C37.3476 33.1605 40.3021 31.2876 43.5551 30.133C46.4168 29.1212 49.7035 28.8576 54.251 28.4942L54.9664 28.4372C56.1504 28.3828 57.3304 28.2614 58.501 28.0739C60.116 27.7532 61.653 27.112 63.0201 26.1929C63.5514 25.8295 64.0826 25.3877 65.7685 23.9414L66.321 23.4711C69.7918 20.4929 72.3064 18.3411 75.0405 17.023ZM90.3547 26.6987C88.6804 25.8941 86.8482 25.4765 84.9926 25.4765C83.137 25.4765 81.3049 25.8941 79.6305 26.6987C78.3201 27.3257 76.9389 28.4586 72.6818 32.0995L72.4693 32.2776C71.0739 33.4746 70.061 34.351 68.9489 35.0991C66.406 36.8091 63.5585 37.999 60.5551 38.5904C59.2447 38.854 57.913 38.9609 56.0785 39.1105L55.8093 39.1319C50.2347 39.5807 48.471 39.766 47.0968 40.2505C43.5551 41.5116 40.7643 44.3117 39.5176 47.8814C39.0218 49.2636 38.8447 51.0377 38.3985 56.6451L38.3772 56.9159C38.2355 58.7612 38.1222 60.1007 37.8672 61.4189C37.2722 64.4399 36.0964 67.3041 34.3964 69.862C33.6455 70.9806 32.7743 71.9995 31.5843 73.4102L31.4072 73.6169C27.7876 77.8919 26.6614 79.2884 26.038 80.5994C25.237 82.2845 24.8212 84.1287 24.8212 85.9966C24.8212 87.8644 25.237 89.7086 26.038 91.3937C26.6614 92.7119 27.7876 94.1012 31.4072 98.3834L31.5843 98.5971C32.7743 100.001 33.6455 101.02 34.3893 102.138C36.0893 104.696 37.2722 107.56 37.8601 110.581C38.1222 111.899 38.2285 113.239 38.3772 115.084L38.3985 115.355C38.8447 120.963 39.0289 122.737 39.5105 124.119C40.7643 127.681 43.548 130.489 47.0968 131.743C48.471 132.241 50.2347 132.419 55.8093 132.868L56.0785 132.89C57.913 133.032 59.2447 133.146 60.5551 133.403C63.5585 134.001 66.406 135.184 68.9489 136.894C70.061 137.649 71.0739 138.526 72.4764 139.723L72.6818 139.901C76.9318 143.542 78.3201 144.674 79.6235 145.301C81.2987 146.107 83.1321 146.525 84.9891 146.525C86.846 146.525 88.6794 146.107 90.3547 145.301C91.6651 144.674 93.0464 143.542 97.3035 139.901L97.516 139.723C98.9114 138.526 99.9243 137.649 101.036 136.901C103.579 135.191 106.427 134.001 109.43 133.41C110.911 133.15 112.406 132.977 113.907 132.89L114.176 132.868C119.751 132.419 121.514 132.234 122.888 131.75C126.43 130.489 129.221 127.688 130.468 124.119C130.963 122.737 131.141 120.955 131.587 115.355L131.608 115.084C131.692 113.572 131.862 112.067 132.118 110.574C132.713 107.56 133.889 104.696 135.589 102.138C136.34 101.02 137.211 100.001 138.401 98.59L138.578 98.3834C142.198 94.1084 143.324 92.7119 143.947 91.4009C144.748 89.7157 145.164 87.8716 145.164 86.0037C145.164 84.1358 144.748 82.2916 143.947 80.6065C143.324 79.2884 142.198 77.899 138.578 73.6169L138.401 73.4031C137.211 71.9995 136.34 70.9806 135.596 69.862C133.895 67.3063 132.715 64.4365 132.125 61.4189C131.867 59.9291 131.694 58.4256 131.608 56.9159L131.587 56.6451C131.141 51.0377 130.956 49.2636 130.475 47.8814C129.221 44.3189 126.437 41.5116 122.888 40.2576C121.514 39.7589 119.743 39.5807 114.176 39.1319L113.907 39.1105C112.404 39.0257 110.907 38.8544 109.423 38.5975C106.426 38.0029 103.575 36.8163 101.036 35.1062C99.9243 34.351 98.9114 33.4746 97.5089 32.2776L97.3035 32.0995C93.0535 28.4586 91.6651 27.3257 90.3618 26.6987M113.645 64.333C114.141 64.8307 114.535 65.4221 114.803 66.0731C115.072 66.7242 115.21 67.4221 115.21 68.1271C115.21 68.832 115.072 69.5299 114.803 70.181C114.535 70.832 114.141 71.4234 113.645 71.9211L78.1076 107.667C77.1076 108.671 75.7523 109.235 74.3393 109.235C72.9263 109.235 71.571 108.671 70.571 107.667L56.3547 93.3674C55.8259 92.8775 55.4009 92.2852 55.1054 91.6259C54.8099 90.9667 54.65 90.2541 54.6352 89.5311C54.6203 88.8081 54.751 88.0896 55.0193 87.4187C55.2875 86.7478 55.6879 86.1383 56.1962 85.627C56.7046 85.1156 57.3105 84.7129 57.9775 84.4431C58.6445 84.1732 59.3588 84.0418 60.0776 84.0567C60.7964 84.0716 61.5047 84.2325 62.1601 84.5297C62.8155 84.827 63.4044 85.2544 63.8914 85.7864L74.3393 96.2886L106.108 64.3401C107.108 63.3359 108.463 62.7719 109.876 62.7719C111.289 62.7719 112.645 63.3359 113.645 64.3401" fill="#008000"/>
</svg>
