<svg width="634" height="199" viewBox="0 0 634 199" fill="none" xmlns="http://www.w3.org/2000/svg">
<mask id="mask0_374_22680" style="mask-type:alpha" maskUnits="userSpaceOnUse" x="237" y="0" width="397" height="199">
<rect x="237.113" width="396.758" height="198.379" rx="39.6758" fill="#F44771"/>
</mask>
<g mask="url(#mask0_374_22680)">
<rect x="819.559" y="-176.558" width="396.758" height="198.379" rx="99.1894" transform="rotate(120 819.559 -176.558)" fill="#E2E2FF"/>
<rect x="471.199" y="89.271" width="396.758" height="198.379" rx="99.1894" fill="white" fill-opacity="0.3"/>
<rect x="409.942" y="167.525" width="394.75" height="196.371" rx="98.1854" transform="rotate(-105 409.942 167.525)" stroke="white" stroke-opacity="0.3" stroke-width="2.00811"/>
</g>
<mask id="mask1_374_22680" style="mask-type:alpha" maskUnits="userSpaceOnUse" x="0" y="0" width="397" height="199">
<rect width="396.758" height="198.379" rx="39.6758" transform="matrix(-1 0 0 1 396.758 0)" fill="#F44771"/>
</mask>
<g mask="url(#mask1_374_22680)">
<rect width="396.758" height="198.379" rx="99.1894" transform="matrix(0.5 0.866025 0.866025 -0.5 -185.688 -176.558)" fill="#E2E2FF"/>
<rect width="396.758" height="198.379" rx="99.1894" transform="matrix(-1 0 0 1 162.672 89.271)" fill="white" fill-opacity="0.3"/>
<rect x="-0.709973" y="-1.22971" width="394.75" height="196.371" rx="98.1854" transform="matrix(0.258819 -0.965926 -0.965926 -0.258819 222.923 166.521)" stroke="white" stroke-opacity="0.3" stroke-width="2.00811"/>
</g>
</svg>
